<?xml version="1.0" encoding="utf-8"?>
<!-- Generator: Adobe Illustrator 24.0.0, SVG Export Plug-In . SVG Version: 6.00 Build 0)  -->
<svg version="1.1" id="Layer_1" xmlns="http://www.w3.org/2000/svg" xmlns:xlink="http://www.w3.org/1999/xlink" x="0px" y="0px"
	 viewBox="0 0 120 120" style="enable-background:new 0 0 120 120;" xml:space="preserve">
<style type="text/css">
	.st0{fill:#110239;}
	.st1{fill:#FEFEFE;}
	.st2{fill:#E5E6ED;}
	.st3{fill:#B3EEF6;}
	.st4{fill:#FD425F;}
	.st5{fill:#FFFFFF;}
	.st6{fill:#D0D1DE;}
	.st7{fill:#F88667;}
	.st8{fill:#E45940;}
	.st9{fill:#01C7E2;}
	.st10{fill:#00A7CC;}
</style>
<g>
	<g>
		<polygon class="st0" points="73.6,109.4 55,109.4 56.5,87 72.1,87 		"/>
		<path class="st0" d="M76,105.8c-0.2-0.3-0.6-0.5-1-0.5H64.7h-0.9H53.6c-0.4,0-0.8,0.2-1,0.5l-2.8,4.2c-0.5,0.8,0,1.9,1,1.9h13.1
			h0.9h13.1c1,0,1.5-1.1,1-1.9L76,105.8z"/>
		<path class="st0" d="M109.8,92.9H18.8c-2.9,0-5.2-2.3-5.2-5.2V30.2c0-2.9,2.3-5.2,5.2-5.2h90.9c2.9,0,5.2,2.3,5.2,5.2v57.5
			C115,90.6,112.7,92.9,109.8,92.9z"/>
		<rect x="18.3" y="29.4" class="st1" width="92.1" height="58.3"/>
		<rect x="20.6" y="35.8" class="st2" width="87.5" height="51.9"/>
		<rect x="20.6" y="35.8" class="st3" width="87.5" height="4.3"/>
		<rect x="76.6" y="54.1" class="st1" width="27.2" height="3.6"/>
		<rect x="76.6" y="60.4" class="st1" width="27.2" height="3.6"/>
		<rect x="76.6" y="66.8" class="st1" width="27.2" height="3.6"/>
		<rect x="28.6" y="44.4" class="st1" width="27.2" height="3.6"/>
		<rect x="28.6" y="50.7" class="st1" width="27.2" height="3.6"/>
	</g>
	<g>
		<g>
			<path class="st4" d="M54.5,51.8H3.3c-1.8,0-3.3,1.5-3.3,3.3v16.5c0,1.8,1.5,3.3,3.3,3.3h32.1l12.2,10.4l-5.8-10.4h12.7
				c1.8,0,3.3-1.5,3.3-3.3V55.1C57.8,53.3,56.3,51.8,54.5,51.8z"/>
			<rect x="19.3" y="56.3" class="st5" width="34.6" height="2"/>
			<rect x="19.3" y="60.4" class="st5" width="34.6" height="2"/>
			<rect x="19.3" y="64.4" class="st5" width="34.6" height="2"/>
			<rect x="19.3" y="68.5" class="st5" width="22.9" height="2"/>
			<path class="st0" d="M16.6,63c0,3.7-3,6.7-6.7,6.7s-6.7-3-6.7-6.7s3-6.7,6.7-6.7S16.6,59.3,16.6,63z"/>
			<ellipse class="st5" cx="9.9" cy="61" rx="1.9" ry="1.9"/>
			<path class="st5" d="M10,63.3L10,63.3c-1.9,0-3.4,1.5-3.4,3.3v2.1c1,0.6,2.1,0.9,3.4,0.9c1.2,0,2.4-0.4,3.4-0.9v-2.1
				C13.3,64.8,11.8,63.3,10,63.3z"/>
		</g>
		<g>
			<path class="st6" d="M116.7,8.9H65.5c-1.8,0-3.3,1.5-3.3,3.3v16.5c0,1.8,1.5,3.3,3.3,3.3h14.8l-4,10.4L86.7,32h30
				c1.8,0,3.3-1.5,3.3-3.3V12.2C120,10.4,118.5,8.9,116.7,8.9z"/>
			<rect x="81.5" y="13.4" class="st5" width="34.6" height="2"/>
			<rect x="81.5" y="17.4" class="st5" width="34.6" height="2"/>
			<rect x="81.5" y="21.5" class="st5" width="34.6" height="2"/>
			<rect x="81.5" y="25.6" class="st5" width="22.9" height="2"/>
			<path class="st0" d="M78.8,20.1c0,3.7-3,6.7-6.7,6.7c-3.7,0-6.7-3-6.7-6.7c0-3.7,3-6.7,6.7-6.7C75.8,13.4,78.8,16.4,78.8,20.1z"
				/>
			<path class="st5" d="M74,18.1c0,1.1-0.8,1.9-1.9,1.9c-1,0-1.9-0.9-1.9-1.9c0-1.1,0.8-1.9,1.9-1.9C73.2,16.2,74,17,74,18.1z"/>
			<path class="st5" d="M72.2,20.3L72.2,20.3c-1.9,0-3.4,1.5-3.4,3.3v2.1c1,0.6,2.1,0.9,3.4,0.9c1.2,0,2.4-0.4,3.4-0.9v-2.1
				C75.5,21.8,74,20.3,72.2,20.3z"/>
		</g>
	</g>
	<g>
		<path class="st4" d="M102.4,84.5H82c-1.7,0-3-1.3-3-3v-2.4c0-1.7,1.3-3,3-3h20.3c1.7,0,3,1.3,3,3v2.4
			C105.4,83.2,104,84.5,102.4,84.5z"/>
		<g>
			<path class="st5" d="M89.6,79.3c0,0.4-0.3,0.8-0.7,0.9c0.5,0.1,0.8,0.5,0.8,1c0,0.7-0.6,1.1-1.6,1.1h-2v-4.1h1.9
				C89,78.3,89.6,78.7,89.6,79.3z M88.5,79.5c0-0.2-0.2-0.4-0.5-0.4h-0.8v0.8H88C88.3,79.9,88.5,79.8,88.5,79.5z M88.6,81.1
				c0-0.3-0.2-0.4-0.6-0.4h-0.8v0.9H88C88.4,81.5,88.6,81.4,88.6,81.1z"/>
			<path class="st5" d="M92.1,81.5c0.5,0,0.8-0.3,0.8-0.8v-2.4H94v2.4c0,1.1-0.7,1.8-1.9,1.8c-1.1,0-1.9-0.7-1.9-1.8v-2.4h1.1v2.4
				C91.3,81.2,91.6,81.5,92.1,81.5z"/>
			<path class="st5" d="M96.8,81.1v1.3h-1.1v-1.3l-1.5-2.8h1.1l1,1.7l0.9-1.7h1.1L96.8,81.1z"/>
		</g>
	</g>
	<g>
		<path class="st7" d="M67.4,49.7c-1.4,0.3-2.8,0.3-4.1,0.2c-0.5,0-1-0.2-1.4-0.3c0.1,1.7,0.1,5.7-1.1,7.4c0,0,0.4,2,4,2
			c3.6,0.1,4-2.6,4-2.6S67.5,52.2,67.4,49.7z"/>
		<path class="st8" d="M60.7,57c0,0,0,0.1,0.1,0.1c0,0,0,0,0,0c0,0.1,0.1,0.1,0.1,0.2c0,0,0,0,0,0c0,0.1,0.1,0.2,0.2,0.3
			c0,0,0,0,0,0c0.2,0.2,0.4,0.4,0.6,0.6c0,0,0,0,0,0c0.1,0.1,0.3,0.2,0.5,0.3c0,0,0,0,0.1,0c0.2,0.1,0.4,0.2,0.6,0.2
			c0.1-0.9,0.5-1.8,1-2.5c1.1-1.3,2.4-2.1,4-2.3c-0.3-1.3-0.6-3-0.6-4.2c-1.4,0.3-2.8,0.3-4.1,0.2c-0.5,0-1-0.2-1.4-0.3
			C61.9,51.2,61.9,55.3,60.7,57C60.7,56.9,60.7,56.9,60.7,57C60.7,57,60.7,57,60.7,57z"/>
		<path class="st7" d="M62.5,40c0,0,5.8-1.7,6.8-0.3c0.9,1.4,0.8,3.7,1.1,4.7c0.4,1,1.8,2.1,2,2.5c0.2,0.4-1,1.2-1.1,1.5
			c-0.2,0.3-0.7,3.6-1.8,4.4c-1,0.7-6.5-1.2-7.8-3.8C60.3,46.4,60.9,40.9,62.5,40z"/>
		<path class="st0" d="M65.1,41.1c0,0,0.2,1.4-0.6,3c-0.3,0.7,1.4,2.6,0.9,3.4c-0.3,0.6-0.8,0.4-1.2-0.7c-0.1-0.4-0.6-0.6-0.9-0.8
			c-1.4-0.6-1.8,1.6-0.5,2.2c0.9,0.5,0.4,2.7,0.4,2.7c-1,0.7-4.1-0.2-3.8-2.5c0.2-1.5,0.3-2-0.2-2.4c-0.9-0.7-2.2-2.5-0.6-4
			c2.1-2.1,0.2-2.8,2.6-3.4C63.6,38,65.7,39.5,65.1,41.1z"/>
		<path class="st0" d="M60.8,39.8c0.1-0.5,1.1-1.2,1.6-1.6c0.7-0.6,1.6-0.9,2.5-1.1c0.9-0.2,1.9-0.3,2.8-0.1
			c0.8,0.2,1.5,0.5,2.3,0.6c0.8,0.1,1.5,0.1,2-0.4c0.2,0.5,0.2,1.5,0.1,1.8c-0.1,0.7-0.6,1.4-1.1,2c-1.2,1.8-4.4,2.7-6.7,1.8
			c-1.1-0.5-2.1-0.8-2.6-1.8C61.4,40.6,61.2,40.3,60.8,39.8z"/>
		<path class="st0" d="M91.9,43.6l5.6,12.5c0,0-1.7,1.9-2.2,1.4c-0.6-0.4-9-10.6-9.8-11.1C84.7,46,91.9,43.6,91.9,43.6z"/>
		<path class="st4" d="M77.9,45.2c0,0,0,3.6,2.2,4.4c0,0,11.3-4.7,13.6-5.1c2.3-0.4,10.5-0.5,10.5-0.5l-8.3-14.9c0,0-4,8-7.6,10.6
			C84.6,42.3,77.9,45.2,77.9,45.2z"/>
		<path class="st0" d="M85.3,47.6c0.9-0.4,1.8-0.7,2.7-1.1c-1.4-1.6-2.1-3.7-2.4-5.1c-0.9,0.5-1.7,1-2.6,1.4
			C83.4,44.7,84.2,46.4,85.3,47.6z"/>
		<path class="st9" d="M107.3,32.9c2.4,5.7,1.5,11.4-1.9,12.8c-3.4,1.4-8-2.1-10.4-7.7c-2.4-5.7-1.5-11.4,1.9-12.8
			C100.4,23.8,105,27.3,107.3,32.9z"/>
		<path class="st0" d="M106.9,33.1c2,4.8,1.3,9.7-1.6,10.9c-2.9,1.2-6.8-1.8-8.8-6.6c-2-4.8-1.3-9.7,1.6-10.9
			C100.9,25.3,104.9,28.3,106.9,33.1z"/>
		<path class="st7" d="M91.2,52.7c-0.3-0.2-0.2-1.2-0.1-1.4c0.1-0.4,0.4-0.9,0.1-1.3c-0.5-0.7-1.2,1.2-1.3,1.4
			c-0.2,0.5-0.2,0.9-0.1,1.2c0.1,0.3,0.7,1.3,1.1,1.6c-0.1,0.2-0.1,0.4-0.2,0.6c0.5,0.2,0.8,0.4,1.4,0.7c0.5,0.3,0.5,0.7,1,1.1
			l0.5-1.2C93.3,55.1,91.7,52.9,91.2,52.7z"/>
		<path class="st7" d="M94.8,48.6c-0.5-0.5-1.2-0.3-1.8,0.1c-0.4,0.3-1.7,1.3-1.3,2c0.3,0.6,1.9-0.7,1.9-0.7
			c-0.6,0.5-1.7,0.9-1.4,1.4c0.3,0.6,1.7-0.2,2-0.5c-0.3,0.1-1.9,1-1.2,1.5c0.4,0.3,1.6-0.4,1.9-0.6c-0.5,0.1-1.1,0.5-1,1.2
			c0.2,0.3,0.9,0.1,1.3,0c0.6-0.2,1.1-0.3,1.2-1.1c0-0.1,0-0.3,0-0.4c0-0.5-0.3-1.1-0.5-1.6C95.5,49.5,95.2,49,94.8,48.6z"/>
		<path class="st7" d="M35.4,52.7c-0.3-0.4-0.5-0.9-0.7-1.4c-0.1-0.4-0.2-0.8-0.4-1.3c-0.1-0.4-0.3-0.8-0.3-1.2
			c0-0.3,0.1-0.5,0.2-0.8c0.1-0.3,0.2-0.6,0.3-1c0.1-0.3,0-0.6,0.1-0.9c0.1-0.5,0.2-1.1,0.5-1.6c0.2-0.4,0.4-0.7,0.7-1
			c0.1-0.2,0.3-0.3,0.4-0.5c0.2-0.1,0.3-0.3,0.4-0.5c0.1-0.3-0.1-0.6-0.3-0.6c-0.5-0.1-1.3,0.1-1.6,0.5c-0.4,0.6-0.6,1.3-1.1,1.9
			c-1.4,1.7-2.8-0.3-4.5-1c-0.5-0.2-1.2-0.7-1.6-1.1c-0.3-0.2-1.6-1.5-2.2-1.1c-0.5,0.2,0.4,1.3,0.9,1.5c0.2,0.1,1.6,1.3,1.8,1.3
			c-0.4-0.1-1.5-0.8-2.4-1.5c-0.6-0.5-1.3-1-1.6-0.7c-1.1,0.9,3.1,2.9,3.5,3.1c-0.4,0-3.7-2.3-4-1.4c-0.2,0.5,0.5,0.9,1.1,1.2
			c0.7,0.4,1.9,0.7,2.1,0.9c-0.5,0.2-2.7-1.3-2.7-0.4c0,0.6,1.4,1,1.9,1.2c0.5,0.2,2.1,1.2,2.6,1.4c1.6,0.8,2.3,0.7,3,1.7
			c0.4,0.6,1.1,3.9,1.7,5.2L35.4,52.7z"/>
		<path class="st9" d="M90.3,54.4c-1.5,4.2-4.6,11.7-5.6,11.2c-1.9-1-6.1-4.4-9.2-6.5c-2.4-1.6-3.6-2.1-3.6-2.1l2.2,10.2
			c0,0,10.2,7.8,12.4,6.6c1.7-0.9,5.8-12.8,7.3-17.6C93.7,56.2,90.3,54.4,90.3,54.4z"/>
		<path class="st10" d="M80.2,69c-1.2-1.5-5.6-5.8-6.7-6.7l0.3,4.9c0,0,10.3,7.8,12.6,6.8C84.4,72.6,81.6,70.8,80.2,69z"/>
		<path class="st9" d="M54.5,57.6c0,0-12.6,5.1-14,4.7C39.2,61.9,34.7,49,34.7,49l-3.8,1.5c0,0,4.1,18.7,6.7,19.6
			c2.6,0.9,18.2-3.6,18.2-3.6S56,61.9,54.5,57.6z"/>
		<path class="st10" d="M43.8,68.9c-1.1,0.4-2.2,0.8-3.4,1.1c5.3-0.7,15.3-3.6,15.3-3.6s0.1-2.1-0.3-4.8
			C52.4,65.1,48,67.4,43.8,68.9z"/>
		<path class="st6" d="M100.9,36.6c-0.6-1.8-2.3-2.8-3.9-2.3c-0.5,0.2-1,0.5-1.3,0.9c0.2,0.7,0.4,1.5,0.7,2.2
			c0.5,1.3,1.2,2.4,1.9,3.4c0.2,0,0.5,0,0.7-0.1C100.7,40.2,101.5,38.4,100.9,36.6z"/>
		<g>
			<path class="st9" d="M54.6,72.9c-0.4,4.4-0.8,13.5-1.1,14.8h20.6c0.4-6.9,0.2-16.8-0.1-20.4C73.5,60.9,71.9,57,71.9,57
				s-1.5-0.5-3.4-1.2c0,0-3.8,2.3-7.3,0c0,0-6.4,1.5-7.2,1.9C53.4,58.1,55,68.2,54.6,72.9z"/>
			<path class="st10" d="M60,78.9c0-2-0.4-4.1-1.2-6c-0.2-0.4-0.3-0.9-0.4-1.3c-0.2-1.4-0.5-2.3-0.9-3c-0.5-0.7-0.9-1.4-1.4-2.1
				c-0.3-0.3-0.5-0.7-0.8-1.1c-0.4-0.6-1-1.6-1.3-2.2c0.2,3.2,0.7,7.5,0.4,9.8c-0.4,4.4-0.8,13.5-1.1,14.8h9.6
				c-1.2-1.6-2-3.5-2.7-5.9C60.1,80.9,60,79.9,60,78.9z"/>
		</g>
	</g>
</g>
</svg>
