<?xml version="1.0" encoding="utf-8"?>
<!-- Generator: Adobe Illustrator 24.0.0, SVG Export Plug-In . SVG Version: 6.00 Build 0)  -->
<svg version="1.1" id="Layer_1" xmlns="http://www.w3.org/2000/svg" xmlns:xlink="http://www.w3.org/1999/xlink" x="0px" y="0px"
	 viewBox="0 0 120 120" style="enable-background:new 0 0 120 120;" xml:space="preserve">
<style type="text/css">
	.st0{opacity:0.2;}
	.st1{enable-background:new    ;}
	.st2{fill:#BA353A;}
	.st3{fill:#E54349;}
	.st4{fill:#FF4A51;}
	.st5{fill:#FFB294;}
	.st6{fill:#D4EEFF;}
	.st7{opacity:0.3;fill:#227FBC;}
	.st8{fill:#25435C;}
	.st9{fill:#172935;}
	.st10{opacity:0.5;fill:#227FBC;}
	.st11{fill:#FFFFFF;}
	.st12{fill:#722811;}
</style>
<g>
	<polygon class="st0" points="120,60.8 119.9,53.1 111.9,54.1 100.8,55.5 105,57.8 2.9,114.2 13,119.8 115.1,63.5 120,66.2 	"/>
	<g>
		<g class="st1">
			<g>
				<g>
					<polygon class="st2" points="120,24.8 100.8,14.1 99.1,12.9 118.1,0 119.7,1.1 					"/>
				</g>
				<g>
					<polygon class="st2" points="120,24.8 100.8,14.1 99.1,12.9 118.1,0 119.7,1.1 					"/>
				</g>
			</g>
			<g>
				<polygon points="114,19.5 103.9,13.8 105.4,14.6 115.5,20.2 				"/>
			</g>
			<g>
				<polygon class="st3" points="96,49.6 85.9,43.9 103.9,13.8 114,19.5 				"/>
			</g>
			<g>
				<polygon class="st3" points="51.3,96.5 41.2,90.9 61,57.8 71.1,63.5 				"/>
			</g>
			<g>
				<polygon class="st4" points="71.1,63.5 61,57.8 85.9,43.9 96,49.6 				"/>
			</g>
			<g>
				<polygon class="st4" points="13,117.8 2.9,112.1 41.2,90.9 51.3,96.5 				"/>
			</g>
			<g>
				<polygon class="st2" points="13,120 3,114.4 2.9,112.1 13,117.8 				"/>
			</g>
			<g>
				<polygon class="st2" points="114,19.5 115.5,20.2 96.9,51.4 71.9,65.2 52.1,98.3 13,120 13,117.8 51.3,96.5 71.1,63.5 96,49.6 
									"/>
			</g>
			<g>
				<polygon class="st3" points="118.4,23.7 99.1,12.9 118.1,0 				"/>
			</g>
		</g>
	</g>
	<g>
		<g>
			<path class="st5" d="M7.3,63.4v1.8l-0.6,1.1l-1.1,0.8c-0.4,0.2-0.7,0.1-0.4-0.3l0.4-0.6v-0.7l-2.8,0.2l-1.9,0.4
				c-1,0.1-1.2-0.1-0.7-0.4l2.5-1.5l3-0.7l0.9-1.1l1.2,0.4L7.3,63.4z"/>
			<path class="st6" d="M5.7,63.5c0.4,0.8,1.1,1.2,2.1,0.7c0.5-0.9,1-1.8,1.5-2.7c1.8-3.2,3.3-5.9,3.7-8.8l3.4-6.4l0.1-0.2l-0.3-7.1
				c-2.6,0.5-5,7-7.4,13.7C7.4,56.7,7.3,60.6,5.7,63.5z"/>
			<path class="st7" d="M9.2,61.5c1.8-3.2,3.3-5.9,3.7-8.8l3.4-6.4l-1.8-2.7c-0.3,2.9-1.2,6.7-2.8,9.1C10.4,56.4,10.1,59.1,9.2,61.5
				z"/>
			<path class="st5" d="M39,90.8h2.4l0.4,1.4c-0.8,1.3-2.5,2-4.5,2.5l-2.9,0.5l-0.8-1.1l0.3-1.9c0-0.1-0.1-0.2-0.1-0.3
				c1.3-0.3,2.6-0.8,3.7-1.7C37.8,90.5,38.4,90.9,39,90.8z"/>
			<path class="st8" d="M38.2,90.6c0.4,0.5,2.1,0.2,2.8,0.6c0.5,0.3,0.5,0.9,0.2,1.2c-0.8,0.8-1.8,1.3-3.1,1.5
				c-1.8,0.1-3.3-0.1-4.4-0.8c-0.8,0.9-0.6,2.8-0.3,3.5c0.7,0.8,1.4,1.1,2.6,0.8c1.2-0.3,1.6-1.5,2.8-2.2c1.2-0.7,2.7-0.4,3.5-1.1
				c0.9-0.8,1.2-1.8,1.5-3.1c0.2-0.6,0-1-1.1-1.3C41.7,89.4,38.2,90.6,38.2,90.6z"/>
			<path class="st5" d="M30.9,63.4c-0.5,8.6-2.2,16.7-6.1,24C24,89,23.1,91,21.5,92c-4.3,5.5-7.5,10.2-8.9,15.5
				c0.2,1.7,0.6,3.1,1.5,3.9l2.2,1.9c-4,1.5-6.2-1.8-8.6-5c3.8-3.3,2.2-10.9,5.9-16.2c1.8-2.7,5.2-5.7,5.2-5.7V71.7
				c-3-2.6-3.5-6.6-1.4-12.2L30.9,63.4z"/>
			<path class="st9" d="M17.5,66.2l11.6-4.5l3.1,12c1.2,6.7,2.3,12.1,5.2,16.4c0,0,0,0,0.1,0.1c0,2-5,5.8-6.6,4
				c-1.3-4.3-4.6-10.9-5.8-16.6L17.5,66.2z"/>
			<path class="st8" d="M13.9,111.2l2.9,0.4c1,0.2,1.5,0.7,1.6,1.4c-0.7,1.5-1.6,2.2-3.4,2.6c-2.3-0.3-4.2-1-5.4-2.5
				c0,0-1.8-0.4-2.4-0.7c-0.6-0.3-1.2-1.1-1.2-1.1c-0.3-1.2,0.7-2.5,2.1-3.2l0.6,0.9c0,0,2.4,3.1,3.5,3.7c1.8,0.9,3.2,0.3,3.2,0.3
				L13.9,111.2z"/>
			<path class="st8" d="M8.7,107.2c1.3,0.3,4.6,2.5,6.8,1.8c-0.1-0.4,0.5-3.8,2-7.8c0.1-0.3,0.2-0.6,0.4-0.9l0.1-0.2
				c1-2.5,2.4-5.2,4.3-7.4c1.2-1.4,1.8-3.8,2.5-5.3c3.8-7.2,5.5-15.2,6.1-23.7c0-0.1,0-0.2,0-0.2l-0.1,0L29.4,63l-11.9-3.5
				c-2.1,5.6-1.6,9.6,1.4,12.2v14.6c0,0-3.4,3.1-5.2,5.7C10.3,96.9,11.3,103.5,8.7,107.2z"/>
			<path class="st10" d="M17.9,100.1c1-2.5,2.4-5.2,4.3-7.4c1.2-1.4,1.8-3.8,2.5-5.3c3.8-7.2,5.5-15.2,6.1-23.7
				c0-0.1-0.1-0.2-0.1-0.3c-0.1-0.2-0.2-0.4-0.2-0.4h-4.2c1.9,7.5,0.2,15.7-3.6,24.3L17.9,100.1z"/>
			<path class="st6" d="M16.7,60.2c1.9,2.8,4.9,4.3,9.2,4.3c1.8,0,3.7-0.2,5.9-0.7c0.2-3.6-0.5-6.6,0.2-9.5c0,0,0.2-0.2,0.5-0.6
				c0.8-1,2.1-3.2,1.5-5.6c-0.5-2.1-4.3-3.2-4.3-3.2s-3.4-3.6-6.1-4.7c-2.7-1.1-7.5-1-7.5-1s-1.6,1-1.6,5.8c0,5.3,3.7,8.1,3.7,10.2
				C18.3,57.2,16.8,60,16.7,60.2z"/>
			<path class="st5" d="M44,55.8l2.3-0.9l1.6-1.5l1-2.1c0.2-0.5,0-0.7-0.3-0.4L48,51.8l0.7-1.7c0.3-0.7,0-0.9-0.4-0.5l-0.4,0.5
				l0.4-1c0.3-0.6-0.1-0.8-0.4-0.4l-1.7,2.3l1.2-2.5c0.2-0.5-0.2-0.6-0.5-0.3l-2.3,3.5l-0.9,0.3l-0.3-1.7c-0.1-0.4-0.6-0.5-0.6,0
				c0,0.7-0.1,1.4-0.2,2.1l0.5,1.5l-1.5,0.8l0.9,1.4L44,55.8z"/>
			<path class="st7" d="M25.9,64.5c1.8,0,3.7-0.2,5.9-0.7c0.2-3.6-0.5-6.6,0.2-9.5c0,0,0.2-0.2,0.5-0.6l-5.7-3.7
				c1.8,3.3,2.3,6.3,1.5,9.4C28,61,27.1,62.7,25.9,64.5z"/>
			<path class="st6" d="M32,47.9c1.8,1.9,3.5,4.1,5.1,6.5c2.6,0.1,4.8,0.2,6.2-0.4c0.8-0.2,1.5,1.2,1.3,2c-2.1,1.5-3.9,2.1-7.7,2.5
				c-2.7-1.2-4.9-3.2-8.2-5.5C24.2,49.6,29.2,45,32,47.9z"/>
			<path class="st5" d="M28.5,38.9l-1,3.9c-1.9,1.4-7-0.1-6.1-2.3l1.5-3.5L28.5,38.9z"/>
			<path class="st5" d="M28.5,38.9l-1,3.9c-1.9,1.4-7-0.1-6.1-2.3l1.5-3.5L28.5,38.9z"/>
			<path class="st11" d="M27.7,41.9l0.6,1.4c-2.8,2.4-8.8-0.3-7.1-3.7l0.7-0.1C22,41.9,24.8,42.9,27.7,41.9z"/>
			<path class="st12" d="M29.8,29.6c0,0,5.1,3.4-1.6,11.5c0,0-4.7,2-6.9-1.7c-2.2-3.7-2.7-9.1,1.4-11.1
				C26.8,26.2,30.3,27.3,29.8,29.6z"/>
		</g>
	</g>
</g>
</svg>
