<?xml version="1.0" encoding="utf-8"?>
<!-- Generator: Adobe Illustrator 24.0.0, SVG Export Plug-In . SVG Version: 6.00 Build 0)  -->
<svg version="1.1" id="Layer_1" xmlns="http://www.w3.org/2000/svg" xmlns:xlink="http://www.w3.org/1999/xlink" x="0px" y="0px"
	 viewBox="0 0 120 120" style="enable-background:new 0 0 120 120;" xml:space="preserve">
<style type="text/css">
	.st0{fill:#110239;}
	.st1{fill:#01C7E2;}
	.st2{fill:#00BAD1;}
	.st3{opacity:0.65;fill:#00A1CC;}
	.st4{fill:#F88667;}
	.st5{fill:#E45940;}
	.st6{fill:#FD425F;}
	.st7{fill:#E42244;}
</style>
<title>2</title>
<g>
	<g>
		<polygon class="st0" points="71.1,114.5 53.2,114.5 54.6,92.8 69.6,92.8 		"/>
		<path class="st0" d="M73.4,111c-0.2-0.3-0.6-0.5-1-0.5h-9.9h-0.8h-9.9c-0.4,0-0.8,0.2-1,0.5l-2.7,4c-0.5,0.8,0,1.8,1,1.8h12.6h0.8
			h12.6c0.9,0,1.5-1,1-1.8L73.4,111z"/>
		<path class="st0" d="M106,98.6H18.2c-2.8,0-5-2.3-5-5V38c0-2.8,2.3-5,5-5H106c2.8,0,5,2.3,5,5v55.5C111,96.3,108.8,98.6,106,98.6z
			"/>
		<rect x="17.7" y="37.3" class="st1" width="88.9" height="56.2"/>
	</g>
	<g>
		<path class="st2" d="M73,14.1c0,0,1.8,6.5,2.7,7.5c0.9,1.1,3.8,2.6,3.8,2.6l-0.8,1.4c0,0-5.2-2.7-6.1-4.9
			c-0.5-1.3-0.9-2.4-1.1-3.4c-0.1-0.8-0.7-2.8-0.4-3.6C71.3,13.3,72.6,13,73,14.1z"/>
		<path class="st3" d="M73,14.1c0,0,1.8,6.5,2.7,7.5c0.9,1.1,3.8,2.6,3.8,2.6l-0.8,1.4c0,0-5.2-2.7-6.1-4.9
			c-0.5-1.3-0.9-2.4-1.1-3.4c-0.1-0.8-0.7-2.8-0.4-3.6C71.3,13.3,72.6,13,73,14.1z"/>
		<path class="st0" d="M91,45l1.3-1.2c0,0,5.3-0.4,5.6,0.1c0.3,0.5-5,3-5.7,2.9C91.6,46.7,91.1,45.5,91,45z"/>
		<path class="st4" d="M81.3,27.1c0,0,5-1.3,5.4-0.4c0.4,0.8,5.6,17.1,5.6,17.1L91,45c0,0-5.6-13.7-7.2-15.2
			C82.2,28.4,80.6,27.7,81.3,27.1z"/>
		<path class="st5" d="M81.3,27.1c0,0,5-1.3,5.4-0.4c0.4,0.8,5.6,17.1,5.6,17.1L91,45c0,0-5.6-13.7-7.2-15.2
			C82.2,28.4,80.6,27.7,81.3,27.1z"/>
		<g>
			<path class="st4" d="M78.7,24.1c0.4-0.1,0.7-0.2,1-0.4c0.3-0.2,0.5-0.3,0.9-0.2c0.2,0,2.2,0.8,1.6,1.2c-0.2,0.1-0.6-0.1-0.7-0.1
				c-0.2-0.1-0.5-0.2-0.7-0.3c0.2,0,1.2,0.4,1.1,0.7c-0.2,0.4-1.2-0.1-1.5-0.3c0.2,0,0.8,0.3,0.8,0.5c0,0.4-0.8,0.1-0.9,0
				c-0.1-0.1-0.2-0.2-0.4-0.2c-0.2,0-0.3,0.1-0.5,0.1c-0.3,0.1-0.5,0-0.8,0c-0.2,0-0.5,0-0.6-0.1c-0.1-0.1,0-0.5,0.1-0.6
				C78.4,24.2,78.6,24.1,78.7,24.1z"/>
			<path class="st5" d="M78.7,24.1c0.4-0.1,0.7-0.2,1-0.4c0.3-0.2,0.5-0.3,0.9-0.2c0.2,0,2.2,0.8,1.6,1.2c-0.2,0.1-0.6-0.1-0.7-0.1
				c-0.2-0.1-0.5-0.2-0.7-0.3c0.2,0,1.2,0.4,1.1,0.7c-0.2,0.4-1.2-0.1-1.5-0.3c0.2,0,0.8,0.3,0.8,0.5c0,0.4-0.8,0.1-0.9,0
				c-0.1-0.1-0.2-0.2-0.4-0.2c-0.2,0-0.3,0.1-0.5,0.1c-0.3,0.1-0.5,0-0.8,0c-0.2,0-0.5,0-0.6-0.1c-0.1-0.1,0-0.5,0.1-0.6
				C78.4,24.2,78.6,24.1,78.7,24.1z"/>
		</g>
		<g>
			<polygon class="st0" points="87.4,15.5 88.6,15.9 84.5,25.7 83.4,25 			"/>
			<rect x="76.1" y="24.9" class="st0" width="7.7" height="1.2"/>
		</g>
		<path class="st0" d="M62.5,19.3c1-0.6,1.2-1.2,0.6-3.4c-0.6-2.2,0.9-4.4,2.4-5c1.1-0.4,2-0.6,2.6-1.7c0.6-1.1-0.6-3.5,1.5-5.3
			c1.5-1.3,3.6-0.3,3.6-0.3c0.5-0.3,0.6,2.4,0.7,4.4c-2.6,3.9-1.8,9.1-0.9,13.5c0,0.1,0.1,0.2,0.1,0.3c-0.2,3.4-0.4,6.2-0.4,6.2
			s-6.2,3.5-10.4,0.5C58.1,25.6,60.4,20.5,62.5,19.3z"/>
		<path class="st0" d="M80.7,44.2l1.6,0.9c0,0,1.9,4.9,1.6,5.4c-0.4,0.4-4.3-3.9-4.5-4.6C79.2,45.2,80.2,44.4,80.7,44.2z"/>
		<path class="st4" d="M78.7,26.8c0,0,10.1,0.7,11,1.6c0.9,0.9-7.6,16.6-7.6,16.6l-1.4-0.8c0,0,2.1-7.4,2.7-9.2
			c0.5-1.7,1.6-3.8,1.4-4.1c-0.2-0.3-10.3,1.3-10.3-1.6C74.5,26.4,78.7,26.8,78.7,26.8z"/>
		<path class="st4" d="M73.7,9.8c0,0-1.1,2.9-0.4,5L69.8,14c0,0,1.4-4.8,2.1-5.6C72.4,7.5,73.7,9.8,73.7,9.8z"/>
		<path class="st5" d="M72.2,12.4c-1.2,0-1.8,0.9-1.8,1.7L69.8,14c0,0,1.4-4.8,2.1-5.6c0.6-0.8,1.9,1.5,1.9,1.5s-0.5,1.3-0.6,2.8
			C72.9,12.5,72.6,12.4,72.2,12.4z"/>
		<path class="st4" d="M74.1,6c0,0,1.4,0.7,1.7,1.2c0.3,0.6,0,1.3,0.1,1.8c0,0.5,0.2,1.3,0.1,1.4c-0.1,0.1-0.6,0-0.7,0.1
			c-0.1,0.1-0.7,0.5-0.9,1c-0.2,0.5-0.5,0.5-1,0.3C72.9,11.6,71,9.2,71,8C71,6.9,72.7,5.6,74.1,6z"/>
		<path class="st0" d="M72.9,4.5c0,0,0.6,1.3,0.7,1.8c0.1,0.5-0.4,2-0.7,2.2c-0.3,0.2,0-1.7-0.8-1.1c-0.7,0.6,0,1.7,0,1.9
			c0,0.2-0.4,0.9-1.1,1c-0.7,0.1-2-3.7-1.2-4.6C70.6,4.8,72,4.5,72.9,4.5z"/>
		<path class="st0" d="M72.8,3.8c0,0,1.2-0.9,2.5,0.1c1.3,1,1.2,2.5,2.2,2.4c0,0-0.7,1.8-2.2,1.3C73.8,7.2,72.2,4.8,72.8,3.8z"/>
		<path class="st6" d="M68.7,23.7l4.7-0.4c0,0,2.4,2.7,4.8,2.7c2.4,0,8.2,0,8.2,0s-0.4,3.7-2.4,6.5c0,0-7.8,0.2-11.6-0.1
			C68.6,32.1,64.9,27.9,68.7,23.7z"/>
		<path class="st7" d="M68.2,24.2c0.1-0.2,0.3-0.4,0.4-0.5l4.7-0.4c0,0,2.4,2.6,4.7,2.7C75.2,26.3,69.7,27,68.2,24.2z"/>
		<path class="st7" d="M84.2,26.6c-1.2-0.1-2.3-0.4-3.5-0.5h5.2C85.3,26.3,85.1,26.7,84.2,26.6z"/>
		<path class="st2" d="M70.2,12.3c0,0,2.1,0.8,2.9,0.9c0,0,1.5,3.3,2.1,4.2c0.6,0.9-1.5,4.4-1.6,5.8c0,0-1.2,1.2-5,0.5
			C68.5,23.8,67.5,14.4,70.2,12.3z"/>
		<path class="st3" d="M69.6,14.3c0.7-0.3,1.8,0,2.1,0.7c0.4,0.8,0,2.3,0,3.1c0.1,0.9,0.1,2.2,0.3,3.1c0.2,0.7,0.6,1.6,1.2,2.3
			c-0.5,0.3-1.9,0.9-4.8,0.3c0,0-0.6-5.7,0.4-9.2C69.2,14.5,69.5,14.4,69.6,14.3z"/>
		<path class="st4" d="M78,24.1c0.4-0.1,0.7-0.2,1-0.4c0.3-0.2,0.5-0.3,0.9-0.2c0.2,0,2.2,0.8,1.6,1.2c-0.2,0.1-0.6-0.1-0.7-0.1
			c-0.2-0.1-0.5-0.2-0.7-0.3c0.2,0,1.2,0.4,1.1,0.7c-0.2,0.4-1.2-0.1-1.5-0.3c0.2,0,0.8,0.3,0.8,0.5c0,0.4-0.8,0.1-0.9,0
			c-0.1-0.1-0.2-0.2-0.4-0.2c-0.2,0-0.3,0.1-0.5,0.1c-0.3,0.1-0.5,0-0.8,0c-0.2,0-0.5,0-0.6-0.1c-0.1-0.1,0-0.5,0.1-0.6
			C77.7,24.2,77.8,24.1,78,24.1z"/>
		<path class="st2" d="M78.3,24l-0.4,1.5c0,0-10.1-1.2-10.3-3c-0.2-1.8,0.4-10.1,2.9-9.3c2.4,0.9,0,6.9,0.4,7.4
			C71.2,21.2,78.3,24,78.3,24z"/>
	</g>
	<path class="st0" d="M75.9,57.1H59.7c-3,0-5.2-2.6-4.2-5c0,0,0-0.1,0-0.1c1.5-3.4,6-2.5,7.2-0.9c0,0-3-5.5,3.5-5.5
		c5.5,0,3.8,5.4,3.8,5.4s1-4.1,4.2-3.8c5.2,0.5,2.1,5.7,2.1,5.7s5.2-1.2,5.1,1.6C81.4,57.2,75.9,57.1,75.9,57.1z"/>
	<path class="st0" d="M35.5,66.2H24.4c-2.1,0-3.6-1.8-2.9-3.5c0,0,0-0.1,0-0.1c1-2.3,4.1-1.7,5-0.6c0,0-2.1-3.8,2.4-3.8
		c3.7,0,2.6,3.7,2.6,3.7s0.7-2.8,2.9-2.6c3.6,0.3,1.4,3.9,1.4,3.9s3.6-0.8,3.5,1.1C39.3,66.3,35.5,66.2,35.5,66.2z"/>
	<path class="st0" d="M69.7,84.2H47.1c-4.2,0-7.2-3.6-5.9-7c0-0.1,0-0.1,0.1-0.2c2.1-4.7,8.4-3.4,10-1.3c0,0-4.2-7.7,4.8-7.7
		c7.6,0,5.2,7.5,5.2,7.5s1.4-5.8,5.9-5.3c7.2,0.7,2.9,7.9,2.9,7.9s7.2-1.6,7.2,2.3C77.3,84.3,69.7,84.2,69.7,84.2z"/>
	<g>
		<path class="st6" d="M35.1,33.9c0-0.4,0.1-0.7,0.1-1.1c0-0.4,0-0.8-0.1-1.1l-1.7-0.3c-0.1-0.3-0.1-0.5-0.2-0.8l1.4-1.1
			c-0.3-0.7-0.7-1.4-1.1-2l-1.7,0.6c-0.2-0.2-0.4-0.4-0.6-0.6l0.6-1.7c-0.6-0.5-1.3-0.8-2-1.1l-1.1,1.4c-0.3-0.1-0.5-0.2-0.8-0.2
			l-0.3-1.7c-0.4,0-0.7-0.1-1.1-0.1c-0.4,0-0.8,0-1.1,0.1L25.1,26c-0.3,0.1-0.5,0.1-0.8,0.2l-1.1-1.4c-0.7,0.3-1.4,0.7-2,1.1
			l0.6,1.7c-0.2,0.2-0.4,0.4-0.6,0.6l-1.7-0.6c-0.5,0.6-0.8,1.3-1.1,2l1.4,1.1c-0.1,0.3-0.2,0.5-0.2,0.8l-1.7,0.3
			c0,0.4-0.1,0.7-0.1,1.1c0,0.4,0,0.8,0.1,1.1l1.7,0.3c0.1,0.3,0.1,0.5,0.2,0.8l-1.4,1.1c0.3,0.7,0.7,1.4,1.1,2l1.7-0.6
			c0.2,0.2,0.4,0.4,0.6,0.6l-0.6,1.7c0.6,0.5,1.3,0.8,2,1.1l1.1-1.4c0.3,0.1,0.5,0.2,0.8,0.2l0.3,1.7c0.4,0,0.7,0.1,1.1,0.1
			c0.4,0,0.8,0,1.1-0.1l0.3-1.7c0.3-0.1,0.5-0.1,0.8-0.2l1.1,1.4c0.7-0.3,1.4-0.7,2-1.1L31.1,38c0.2-0.2,0.4-0.4,0.6-0.6l1.7,0.6
			c0.5-0.6,0.8-1.3,1.1-2L33.1,35c0.1-0.3,0.2-0.5,0.2-0.8L35.1,33.9z M26.5,37.3c-2.5,0-4.5-2-4.5-4.5c0-2.5,2-4.5,4.5-4.5
			c2.5,0,4.5,2,4.5,4.5C31,35.3,29,37.3,26.5,37.3z"/>
		<g>
			<path class="st0" d="M26.5,27.7c-2.8,0-5.1,2.3-5.1,5.1c0,2.8,2.3,5.1,5.1,5.1c2.8,0,5.1-2.3,5.1-5.1
				C31.6,30,29.3,27.7,26.5,27.7z M26.5,35.9c-1.7,0-3.2-1.4-3.2-3.2c0-1.7,1.4-3.2,3.2-3.2s3.2,1.4,3.2,3.2
				C29.7,34.5,28.3,35.9,26.5,35.9z"/>
		</g>
	</g>
	<g>
		<path class="st6" d="M110.6,78.4c0.2-0.4,0.4-0.8,0.5-1.2c0.1-0.4,0.3-0.8,0.3-1.2l-1.7-0.9c0-0.3,0.1-0.6,0.1-0.9l1.9-0.7
			c0-0.9-0.2-1.7-0.5-2.5l-2,0c-0.1-0.3-0.2-0.5-0.4-0.8l1.3-1.5c-0.5-0.7-1-1.4-1.6-1.9l-1.7,1c-0.2-0.2-0.5-0.4-0.7-0.5l0.4-1.9
			c-0.4-0.2-0.8-0.4-1.2-0.5c-0.4-0.1-0.8-0.3-1.2-0.3l-0.9,1.7c-0.3,0-0.6-0.1-0.9-0.1l-0.7-1.9c-0.9,0-1.7,0.2-2.5,0.5l0,2
			c-0.3,0.1-0.5,0.2-0.8,0.4l-1.5-1.3c-0.7,0.5-1.4,1-1.9,1.6l1,1.7c-0.2,0.2-0.4,0.5-0.5,0.7l-1.9-0.4c-0.2,0.4-0.4,0.8-0.5,1.2
			c-0.1,0.4-0.3,0.8-0.3,1.2l1.7,0.9c0,0.3-0.1,0.6-0.1,0.9l-1.9,0.7c0,0.9,0.2,1.7,0.5,2.5l2,0c0.1,0.3,0.2,0.5,0.4,0.8l-1.3,1.5
			c0.5,0.7,1,1.4,1.6,1.9l1.7-1c0.2,0.2,0.5,0.4,0.7,0.5l-0.4,1.9c0.4,0.2,0.8,0.4,1.2,0.5c0.4,0.1,0.8,0.3,1.2,0.3l0.9-1.7
			c0.3,0,0.6,0.1,0.9,0.1l0.7,1.9c0.9,0,1.7-0.2,2.5-0.5l0-2c0.3-0.1,0.5-0.2,0.8-0.4l1.5,1.3c0.7-0.5,1.4-1,1.9-1.6l-1-1.7
			c0.2-0.2,0.4-0.5,0.5-0.7L110.6,78.4z M100.3,78.8c-2.6-0.9-4-3.8-3.1-6.5c0.9-2.6,3.8-4,6.5-3.1c2.6,0.9,4,3.8,3.1,6.5
			C105.8,78.3,102.9,79.7,100.3,78.8z"/>
		<g>
			<path class="st6" d="M103.9,68.7c-3-1.1-6.2,0.5-7.3,3.4c-1.1,3,0.5,6.2,3.4,7.3c3,1.1,6.2-0.5,7.3-3.4
				C108.4,73,106.9,69.7,103.9,68.7z M100.8,77.3c-1.8-0.7-2.8-2.7-2.1-4.5s2.7-2.8,4.5-2.1c1.8,0.7,2.8,2.7,2.1,4.5
				C104.7,77,102.6,78,100.8,77.3z"/>
		</g>
	</g>
	<g>
		<g>
			<rect x="15.7" y="31.4" class="st0" width="1.3" height="0.7"/>
		</g>
		<g>
			<path class="st0" d="M14.6,32.1h-1.2v-0.7h1.2V32.1z M12.2,32.1h-1.2v-0.7h1.2V32.1z M9.9,32.1H8.7v-0.7h1.2V32.1z"/>
		</g>
		<g>
			<polygon class="st0" points="7.4,32.3 6.7,32.3 6.7,31.4 7.5,31.4 7.5,32.1 7.4,32.1 			"/>
		</g>
		<g>
			<path class="st0" d="M7.4,50.8H6.7v-1h0.7V50.8z M7.4,48.7H6.7v-1h0.7V48.7z M7.4,46.7H6.7v-1h0.7V46.7z M7.4,44.6H6.7v-1h0.7
				V44.6z M7.4,42.6H6.7v-1h0.7V42.6z M7.4,40.5H6.7v-1h0.7V40.5z M7.4,38.4H6.7v-1h0.7V38.4z M7.4,36.4H6.7v-1h0.7V36.4z M7.4,34.3
				H6.7v-1h0.7V34.3z"/>
		</g>
		<g>
			<polygon class="st0" points="7.5,52.7 6.7,52.7 6.7,51.8 7.4,51.8 7.4,52 7.5,52 			"/>
		</g>
		<g>
			<path class="st0" d="M24,52.7h-1V52h1V52.7z M22,52.7h-1V52h1V52.7z M19.9,52.7h-1V52h1V52.7z M17.9,52.7h-1V52h1V52.7z
				 M15.8,52.7h-1V52h1V52.7z M13.7,52.7h-1V52h1V52.7z M11.7,52.7h-1V52h1V52.7z M9.6,52.7h-1V52h1V52.7z"/>
		</g>
		<g>
			<polygon class="st0" points="26,52.9 25.2,52.9 25.2,52.7 25.1,52.7 25.1,52 26,52 			"/>
		</g>
		<g>
			<path class="st0" d="M26,60.8h-0.7v-1H26V60.8z M26,58.8h-0.7v-1H26V58.8z M26,56.8h-0.7v-1H26V56.8z M26,54.8h-0.7v-1H26V54.8z"
				/>
		</g>
		<g>
			<polygon class="st0" points="26.1,62.7 25.2,62.7 25.2,61.8 26,61.8 26,61.9 26.1,61.9 			"/>
		</g>
		<g>
			<path class="st0" d="M45.3,62.7h-1.1v-0.7h1.1V62.7z M43.1,62.7h-1.1v-0.7h1.1V62.7z M41,62.7H40v-0.7H41V62.7z M38.9,62.7h-1.1
				v-0.7h1.1V62.7z M36.8,62.7h-1.1v-0.7h1.1V62.7z M34.6,62.7h-1.1v-0.7h1.1V62.7z M32.5,62.7h-1.1v-0.7h1.1V62.7z M30.4,62.7h-1.1
				v-0.7h1.1V62.7z M28.2,62.7h-1.1v-0.7h1.1V62.7z"/>
		</g>
		<g>
			<polygon class="st0" points="47.2,62.8 46.5,62.8 46.5,62.7 46.3,62.7 46.3,61.9 47.2,61.9 			"/>
		</g>
		<g>
			<path class="st0" d="M47.2,78.1h-0.7V77h0.7V78.1z M47.2,76h-0.7v-1.1h0.7V76z M47.2,73.8h-0.7v-1.1h0.7V73.8z M47.2,71.6h-0.7
				v-1.1h0.7V71.6z M47.2,69.4h-0.7v-1.1h0.7V69.4z M47.2,67.2h-0.7v-1.1h0.7V67.2z M47.2,65h-0.7v-1.1h0.7V65z"/>
		</g>
		<g>
			<polygon class="st0" points="47.4,80.1 46.5,80.1 46.5,79.2 47.2,79.2 47.2,79.4 47.4,79.4 			"/>
		</g>
		<g>
			<path class="st0" d="M71.8,80.1h-1v-0.7h1V80.1z M69.8,80.1h-1v-0.7h1V80.1z M67.7,80.1h-1v-0.7h1V80.1z M65.7,80.1h-1v-0.7h1
				V80.1z M63.7,80.1h-1v-0.7h1V80.1z M61.6,80.1h-1v-0.7h1V80.1z M59.6,80.1h-1v-0.7h1V80.1z M57.6,80.1h-1v-0.7h1V80.1z
				 M55.5,80.1h-1v-0.7h1V80.1z M53.5,80.1h-1v-0.7h1V80.1z M51.5,80.1h-1v-0.7h1V80.1z M49.4,80.1h-1v-0.7h1V80.1z"/>
		</g>
		<g>
			<polygon class="st0" points="73.7,80.1 72.8,80.1 72.8,79.4 73,79.4 73,79.2 73.7,79.2 			"/>
		</g>
		<g>
			<path class="st0" d="M73.7,78.2H73v-1h0.7V78.2z M73.7,76.1H73v-1h0.7V76.1z M73.7,74H73v-1h0.7V74z M73.7,71.9H73v-1h0.7V71.9z
				 M73.7,69.9H73v-1h0.7V69.9z M73.7,67.8H73v-1h0.7V67.8z M73.7,65.7H73v-1h0.7V65.7z M73.7,63.6H73v-1h0.7V63.6z M73.7,61.5H73
				v-1h0.7V61.5z M73.7,59.4H73v-1h0.7V59.4z M73.7,57.4H73v-1h0.7V57.4z"/>
		</g>
		<g>
			<polygon class="st0" points="73.7,55.3 73,55.3 73,54.4 73.9,54.4 73.9,55.1 73.7,55.1 			"/>
		</g>
		<g>
			<path class="st0" d="M100.8,55.1h-1v-0.7h1V55.1z M98.8,55.1h-1v-0.7h1V55.1z M96.7,55.1h-1v-0.7h1V55.1z M94.6,55.1h-1v-0.7h1
				V55.1z M92.5,55.1h-1v-0.7h1V55.1z M90.5,55.1h-1v-0.7h1V55.1z M88.4,55.1h-1v-0.7h1V55.1z M86.3,55.1h-1v-0.7h1V55.1z
				 M84.2,55.1h-1v-0.7h1V55.1z M82.2,55.1h-1v-0.7h1V55.1z M80.1,55.1h-1v-0.7h1V55.1z M78,55.1h-1v-0.7h1V55.1z M76,55.1h-1v-0.7
				h1V55.1z"/>
		</g>
		<g>
			<polygon class="st0" points="102.8,55.3 102,55.3 102,55.1 101.9,55.1 101.9,54.4 102.8,54.4 			"/>
		</g>
		<g>
			<path class="st0" d="M102.8,61.4H102v-1h0.7V61.4z M102.8,59.3H102v-1h0.7V59.3z M102.8,57.3H102v-1h0.7V57.3z"/>
		</g>
		<g>
			<rect x="102" y="62.4" class="st0" width="0.7" height="1"/>
		</g>
	</g>
</g>
</svg>
