<?xml version="1.0" encoding="utf-8"?>
<!-- Generator: Adobe Illustrator 24.0.0, SVG Export Plug-In . SVG Version: 6.00 Build 0)  -->
<svg version="1.1" id="Layer_1" xmlns="http://www.w3.org/2000/svg" xmlns:xlink="http://www.w3.org/1999/xlink" x="0px" y="0px"
	 viewBox="0 0 120 120" style="enable-background:new 0 0 120 120;" xml:space="preserve">
<style type="text/css">
	.st0{fill:#FF9238;}
	.st1{fill:#FFC366;}
	.st2{opacity:0.4;fill:#FF9238;}
	.st3{fill:#3B5770;}
	.st4{fill:#2A3D4F;}
	.st5{fill:#E6E6E6;}
	.st6{fill:#FF4A51;}
	.st7{fill:#FFFFFF;}
	.st8{fill:#FFB294;}
	.st9{opacity:0.5;fill:#FFB294;}
	.st10{fill:#1A1A1A;}
	.st11{fill:#4D4D4D;}
	.st12{fill:#333333;}
	.st13{opacity:0.3;fill:#2A3D4F;}
	.st14{clip-path:url(#SVGID_2_);fill:#FFB294;}
</style>
<title>2</title>
<g>
	<g>
		<path class="st0" d="M105,88.9H18.3v5.8c-0.1,6.5,4.1,13,12.7,18c16.9,9.8,44.4,9.8,61.3,0c8.6-5,12.8-11.5,12.7-18
			C105,94.7,105,88.9,105,88.9z"/>
		<ellipse class="st1" cx="61.6" cy="88.9" rx="43.3" ry="25"/>
		<path class="st0" d="M101,88.9c0,0.3,0,0.6,0,0.9c-0.4,5.1-4.2,9.9-10.7,13.8c-7.6,4.5-17.8,7-28.7,7c-10.9,0-21.1-2.5-28.7-7
			c-6.5-3.9-10.3-8.8-10.7-13.8c0-0.3,0-0.6,0-0.9c0-5.4,3.8-10.6,10.7-14.8c7.6-4.5,17.8-7,28.7-7c10.9,0,21.1,2.5,28.7,7
			C97.2,78.3,101,83.5,101,88.9z"/>
		<path class="st1" d="M101,89.8c-0.4,5.1-4.2,9.9-10.7,13.8c-7.6,4.5-17.8,7-28.7,7c-10.9,0-21.1-2.5-28.7-7
			c-6.5-3.9-10.3-8.8-10.7-13.8c0.4-5.1,4.2-9.9,10.7-13.8c7.6-4.5,17.8-7,28.7-7c10.9,0,21.1,2.5,28.7,7
			C96.8,79.9,100.5,84.8,101,89.8z"/>
		<g>
			<path class="st0" d="M79.7,100.9c-1.7,0.9-3.4,1.6-5.2,2.1c-1.8,0.5-3.5,0.8-5.1,1c-1.6,0.2-3,0.2-4.3,0.1
				c-1.2-0.1-2.2-0.4-2.8-0.8c-0.3-0.2-0.6-0.4-0.8-0.7c-0.2-0.3-0.3-0.6-0.4-0.9c-0.1-0.3,0-0.6,0.1-0.9c0.1-0.3,0.3-0.5,0.7-0.7
				c0.4-0.2,1.1-0.4,1.9-0.4c0.8,0,1.8-0.1,2.9-0.1c1.1-0.1,2.4-0.2,3.7-0.4c1.4-0.2,2.8-0.7,4.2-1.4l-12-7.4
				c-1.6,0.4-3.3,0.8-5,1.2c-1.7,0.4-3.4,0.6-5.2,0.7c-1.7,0.1-3.4-0.1-5.2-0.4c-1.7-0.3-3.4-1-5-2c-1.6-1-2.7-2-3.2-3
				c-0.5-1-0.7-2-0.5-3c0.2-1,0.7-1.9,1.6-2.9c0.8-0.9,1.9-1.8,3-2.5l-1.5-0.9c-0.3-0.2-0.4-0.4-0.4-0.7c0.1-0.3,0.3-0.6,0.8-0.8
				c0.4-0.2,0.9-0.3,1.5-0.4c0.6,0,1,0,1.3,0.2l1.4,0.9c0.9-0.5,2-1,3.2-1.4c1.2-0.5,2.4-0.9,3.6-1.2c1.2-0.3,2.3-0.5,3.3-0.5
				c1,0,1.9,0.1,2.5,0.5c0.2,0.1,0.5,0.4,0.7,0.6c0.3,0.3,0.4,0.5,0.5,0.8c0.1,0.3,0.1,0.6,0,0.9c-0.1,0.3-0.4,0.5-0.8,0.8
				c-0.3,0.2-0.8,0.3-1.3,0.4c-0.5,0.1-1.2,0.2-1.9,0.3c-0.7,0.1-1.5,0.3-2.4,0.6c-0.9,0.2-1.8,0.6-2.9,1.1l10.4,6.4
				c1.6-0.4,3.3-0.8,5-1.1c1.7-0.3,3.4-0.5,5.2-0.5c1.8,0,3.5,0.2,5.3,0.6c1.8,0.4,3.5,1.2,5.3,2.2c3.1,1.9,4.7,3.9,4.6,6
				c-0.1,2.1-1.4,4-4,5.8l1.7,1.1c0.3,0.2,0.4,0.4,0.3,0.8c-0.1,0.3-0.4,0.6-0.8,0.8c-0.5,0.3-1,0.4-1.5,0.4c-0.5,0-1-0.1-1.3-0.3
				L79.7,100.9z M47.3,86.7c0.7,0.4,1.5,0.7,2.3,0.9c0.8,0.2,1.6,0.3,2.5,0.2c0.8,0,1.7-0.1,2.7-0.3c0.9-0.2,1.9-0.4,2.8-0.6
				l-9.3-5.7c-1.4,0.9-2.2,1.9-2.5,2.8C45.5,85,46,85.8,47.3,86.7z M77.3,90.5c-1.6-1-3.3-1.5-5-1.5c-1.8,0-3.6,0.2-5.5,0.6
				l10.8,6.6c1.2-1,1.8-1.9,1.9-2.9C79.4,92.4,78.7,91.4,77.3,90.5z"/>
		</g>
	</g>
	<g>
		<path class="st0" d="M107.9,81.7H21.2v5.8c-0.1,6.5,4.1,13,12.7,18c16.9,9.8,44.4,9.8,61.3,0c8.6-5,12.8-11.5,12.7-18
			C107.9,87.5,107.9,81.7,107.9,81.7z"/>
		<ellipse class="st1" cx="64.6" cy="81.7" rx="43.3" ry="25"/>
		<path class="st0" d="M103.9,81.7c0,0.3,0,0.6,0,0.9c-0.4,5.1-4.2,9.9-10.7,13.8c-7.6,4.5-17.8,7-28.7,7c-10.9,0-21.1-2.5-28.7-7
			c-6.5-3.9-10.3-8.8-10.7-13.8c0-0.3,0-0.6,0-0.9c0-5.4,3.8-10.6,10.7-14.8c7.6-4.5,17.8-7,28.7-7c10.9,0,21.1,2.5,28.7,7
			C100.1,71.1,103.9,76.3,103.9,81.7z"/>
		<path class="st1" d="M103.9,82.7c-0.4,5.1-4.2,9.9-10.7,13.8c-7.6,4.5-17.8,7-28.7,7c-10.9,0-21.1-2.5-28.7-7
			c-6.5-3.9-10.3-8.8-10.7-13.8c0.4-5.1,4.2-9.9,10.7-13.8c7.6-4.5,17.8-7,28.7-7c10.9,0,21.1,2.5,28.7,7
			C99.7,72.7,103.5,77.6,103.9,82.7z"/>
		<g>
			<path class="st0" d="M82.6,93.7c-1.7,0.9-3.4,1.6-5.2,2.1c-1.8,0.5-3.5,0.8-5.1,1c-1.6,0.2-3,0.2-4.3,0.1
				c-1.2-0.1-2.2-0.4-2.8-0.8c-0.3-0.2-0.6-0.4-0.8-0.7c-0.2-0.3-0.3-0.6-0.4-0.9c-0.1-0.3,0-0.6,0.1-0.9c0.1-0.3,0.3-0.5,0.7-0.7
				c0.4-0.2,1.1-0.4,1.9-0.4c0.8,0,1.8-0.1,2.9-0.1c1.1-0.1,2.4-0.2,3.7-0.4c1.4-0.2,2.8-0.7,4.2-1.4l-12-7.4
				c-1.6,0.4-3.3,0.8-5,1.2c-1.7,0.4-3.4,0.6-5.2,0.7c-1.7,0.1-3.4-0.1-5.2-0.4c-1.7-0.3-3.4-1-5-2c-1.6-1-2.7-2-3.2-3
				c-0.5-1-0.7-2-0.5-3c0.2-1,0.7-1.9,1.6-2.9c0.8-0.9,1.9-1.8,3-2.5l-1.5-0.9c-0.3-0.2-0.4-0.4-0.4-0.7c0.1-0.3,0.3-0.6,0.8-0.8
				c0.4-0.2,0.9-0.3,1.5-0.4c0.6,0,1,0,1.3,0.2l1.4,0.9c0.9-0.5,2-1,3.2-1.4c1.2-0.5,2.4-0.9,3.6-1.2c1.2-0.3,2.3-0.5,3.3-0.5
				c1,0,1.9,0.1,2.5,0.5c0.2,0.1,0.5,0.4,0.7,0.6c0.3,0.3,0.4,0.5,0.5,0.8c0.1,0.3,0.1,0.6,0,0.9c-0.1,0.3-0.4,0.5-0.8,0.8
				c-0.3,0.2-0.8,0.3-1.3,0.4c-0.5,0.1-1.2,0.2-1.9,0.3c-0.7,0.1-1.5,0.3-2.4,0.6C56,71.6,55,71.9,54,72.4l10.4,6.4
				c1.6-0.4,3.3-0.8,5-1.1c1.7-0.3,3.4-0.5,5.2-0.5c1.8,0,3.5,0.2,5.3,0.6c1.8,0.4,3.5,1.2,5.3,2.2c3.1,1.9,4.7,3.9,4.6,6
				c-0.1,2.1-1.4,4-4,5.8l1.7,1.1c0.3,0.2,0.4,0.4,0.3,0.8c-0.1,0.3-0.4,0.6-0.8,0.8c-0.5,0.3-1,0.4-1.5,0.4c-0.5,0-1-0.1-1.3-0.3
				L82.6,93.7z M50.3,79.5c0.7,0.4,1.5,0.7,2.3,0.9c0.8,0.2,1.6,0.3,2.5,0.2c0.8,0,1.7-0.1,2.7-0.3c0.9-0.2,1.9-0.4,2.8-0.6L51.2,74
				c-1.4,0.9-2.2,1.9-2.5,2.8C48.4,77.8,49,78.7,50.3,79.5z M80.2,83.4c-1.6-1-3.3-1.5-5-1.5c-1.8,0-3.6,0.2-5.5,0.6l10.8,6.6
				c1.2-1,1.8-1.9,1.9-2.9C82.4,85.2,81.7,84.3,80.2,83.4z"/>
		</g>
	</g>
	<g>
		<path class="st0" d="M105,73.8H18.3v5.8c-0.1,6.5,4.1,13,12.7,18c16.9,9.8,44.4,9.8,61.3,0c8.6-5,12.8-11.5,12.7-18
			C105,79.6,105,73.8,105,73.8z"/>
		<ellipse class="st1" cx="61.6" cy="73.8" rx="43.3" ry="25"/>
		<path class="st0" d="M101,73.8c0,0.3,0,0.6,0,0.9c-0.4,5.1-4.2,9.9-10.7,13.8c-7.6,4.5-17.8,7-28.7,7c-10.9,0-21.1-2.5-28.7-7
			c-6.5-3.9-10.3-8.8-10.7-13.8c0-0.3,0-0.6,0-0.9c0-5.4,3.8-10.6,10.7-14.8c7.6-4.5,17.8-7,28.7-7c10.9,0,21.1,2.5,28.7,7
			C97.2,63.1,101,68.4,101,73.8z"/>
		<path class="st1" d="M101,74.7c-0.4,5.1-4.2,9.9-10.7,13.8c-7.6,4.5-17.8,7-28.7,7c-10.9,0-21.1-2.5-28.7-7
			c-6.5-3.9-10.3-8.8-10.7-13.8c0.4-5.1,4.2-9.9,10.7-13.8c7.6-4.5,17.8-7,28.7-7c10.9,0,21.1,2.5,28.7,7
			C96.8,64.8,100.5,69.6,101,74.7z"/>
		<g>
			<path class="st0" d="M79.7,85.8c-1.7,0.9-3.4,1.6-5.2,2.1c-1.8,0.5-3.5,0.8-5.1,1c-1.6,0.2-3,0.2-4.3,0.1
				c-1.2-0.1-2.2-0.4-2.8-0.8c-0.3-0.2-0.6-0.4-0.8-0.7c-0.2-0.3-0.3-0.6-0.4-0.9c-0.1-0.3,0-0.6,0.1-0.9c0.1-0.3,0.3-0.5,0.7-0.7
				c0.4-0.2,1.1-0.4,1.9-0.4c0.8,0,1.8-0.1,2.9-0.1c1.1-0.1,2.4-0.2,3.7-0.4c1.4-0.2,2.8-0.7,4.2-1.4l-12-7.4
				c-1.6,0.4-3.3,0.8-5,1.2c-1.7,0.4-3.4,0.6-5.2,0.7c-1.7,0.1-3.4-0.1-5.2-0.4c-1.7-0.3-3.4-1-5-2c-1.6-1-2.7-2-3.2-3
				c-0.5-1-0.7-2-0.5-3c0.2-1,0.7-1.9,1.6-2.9c0.8-0.9,1.9-1.8,3-2.5l-1.5-0.9c-0.3-0.2-0.4-0.4-0.4-0.7c0.1-0.3,0.3-0.6,0.8-0.8
				c0.4-0.2,0.9-0.3,1.5-0.4c0.6,0,1,0,1.3,0.2l1.4,0.9c0.9-0.5,2-1,3.2-1.4c1.2-0.5,2.4-0.9,3.6-1.2c1.2-0.3,2.3-0.5,3.3-0.5
				c1,0,1.9,0.1,2.5,0.5c0.2,0.1,0.5,0.4,0.7,0.6c0.3,0.3,0.4,0.5,0.5,0.8c0.1,0.3,0.1,0.6,0,0.9c-0.1,0.3-0.4,0.5-0.8,0.8
				c-0.3,0.2-0.8,0.3-1.3,0.4c-0.5,0.1-1.2,0.2-1.9,0.3c-0.7,0.1-1.5,0.3-2.4,0.6c-0.9,0.2-1.8,0.6-2.9,1.1l10.4,6.4
				c1.6-0.4,3.3-0.8,5-1.1c1.7-0.3,3.4-0.5,5.2-0.5c1.8,0,3.5,0.2,5.3,0.6c1.8,0.4,3.5,1.2,5.3,2.2c3.1,1.9,4.7,3.9,4.6,6
				c-0.1,2.1-1.4,4-4,5.8l1.7,1.1c0.3,0.2,0.4,0.4,0.3,0.8c-0.1,0.3-0.4,0.6-0.8,0.8c-0.5,0.3-1,0.4-1.5,0.4c-0.5,0-1-0.1-1.3-0.3
				L79.7,85.8z M47.3,71.5c0.7,0.4,1.5,0.7,2.3,0.9c0.8,0.2,1.6,0.3,2.5,0.2c0.8,0,1.7-0.1,2.7-0.3c0.9-0.2,1.9-0.4,2.8-0.6
				l-9.3-5.7c-1.4,0.9-2.2,1.9-2.5,2.8C45.5,69.8,46,70.7,47.3,71.5z M77.3,75.4c-1.6-1-3.3-1.5-5-1.5c-1.8,0-3.6,0.2-5.5,0.6
				l10.8,6.6c1.2-1,1.8-1.9,1.9-2.9C79.4,77.2,78.7,76.3,77.3,75.4z"/>
		</g>
	</g>
	<g>
		<path class="st0" d="M105,66.2H18.3V72c-0.1,6.5,4.1,13,12.7,18c16.9,9.8,44.4,9.8,61.3,0c8.6-5,12.8-11.5,12.7-18
			C105,72,105,66.2,105,66.2z"/>
		<ellipse class="st1" cx="61.6" cy="66.2" rx="43.3" ry="25"/>
		<path class="st0" d="M101,66.2c0,0.3,0,0.6,0,0.9c-0.4,5.1-4.2,9.9-10.7,13.8c-7.6,4.5-17.8,7-28.7,7c-10.9,0-21.1-2.5-28.7-7
			c-6.5-3.9-10.3-8.8-10.7-13.8c0-0.3,0-0.6,0-0.9c0-5.4,3.8-10.6,10.7-14.8c7.6-4.5,17.8-7,28.7-7c10.9,0,21.1,2.5,28.7,7
			C97.2,55.6,101,60.8,101,66.2z"/>
		<path class="st1" d="M101,67.1c-0.4,5.1-4.2,9.9-10.7,13.8c-7.6,4.5-17.8,7-28.7,7c-10.9,0-21.1-2.5-28.7-7
			c-6.5-3.9-10.3-8.8-10.7-13.8c0.4-5.1,4.2-9.9,10.7-13.8c7.6-4.5,17.8-7,28.7-7c10.9,0,21.1,2.5,28.7,7
			C96.8,57.2,100.5,62.1,101,67.1z"/>
		<g>
			<path class="st0" d="M79.7,78.2c-1.7,0.9-3.4,1.6-5.2,2.1c-1.8,0.5-3.5,0.8-5.1,1c-1.6,0.2-3,0.2-4.3,0.1
				c-1.2-0.1-2.2-0.4-2.8-0.8c-0.3-0.2-0.6-0.4-0.8-0.7c-0.2-0.3-0.3-0.6-0.4-0.9c-0.1-0.3,0-0.6,0.1-0.9c0.1-0.3,0.3-0.5,0.7-0.7
				c0.4-0.2,1.1-0.4,1.9-0.4c0.8,0,1.8-0.1,2.9-0.1c1.1-0.1,2.4-0.2,3.7-0.4c1.4-0.2,2.8-0.7,4.2-1.4l-12-7.4
				c-1.6,0.4-3.3,0.8-5,1.2c-1.7,0.4-3.4,0.6-5.2,0.7c-1.7,0.1-3.4-0.1-5.2-0.4c-1.7-0.3-3.4-1-5-2c-1.6-1-2.7-2-3.2-3
				c-0.5-1-0.7-2-0.5-3c0.2-1,0.7-1.9,1.6-2.9c0.8-0.9,1.9-1.8,3-2.5l-1.5-0.9c-0.3-0.2-0.4-0.4-0.4-0.7c0.1-0.3,0.3-0.6,0.8-0.8
				c0.4-0.2,0.9-0.3,1.5-0.4c0.6,0,1,0,1.3,0.2l1.4,0.9c0.9-0.5,2-1,3.2-1.4c1.2-0.5,2.4-0.9,3.6-1.2c1.2-0.3,2.3-0.5,3.3-0.5
				c1,0,1.9,0.1,2.5,0.5c0.2,0.1,0.5,0.4,0.7,0.6c0.3,0.3,0.4,0.5,0.5,0.8c0.1,0.3,0.1,0.6,0,0.9c-0.1,0.3-0.4,0.5-0.8,0.8
				c-0.3,0.2-0.8,0.3-1.3,0.4c-0.5,0.1-1.2,0.2-1.9,0.3c-0.7,0.1-1.5,0.3-2.4,0.6c-0.9,0.2-1.8,0.6-2.9,1.1l10.4,6.4
				c1.6-0.4,3.3-0.8,5-1.1c1.7-0.3,3.4-0.5,5.2-0.5c1.8,0,3.5,0.2,5.3,0.6c1.8,0.4,3.5,1.2,5.3,2.2c3.1,1.9,4.7,3.9,4.6,6
				c-0.1,2.1-1.4,4-4,5.8l1.7,1.1c0.3,0.2,0.4,0.4,0.3,0.8c-0.1,0.3-0.4,0.6-0.8,0.8c-0.5,0.3-1,0.4-1.5,0.4c-0.5,0-1-0.1-1.3-0.3
				L79.7,78.2z M47.3,64c0.7,0.4,1.5,0.7,2.3,0.9c0.8,0.2,1.6,0.3,2.5,0.2c0.8,0,1.7-0.1,2.7-0.3c0.9-0.2,1.9-0.4,2.8-0.6l-9.3-5.7
				c-1.4,0.9-2.2,1.9-2.5,2.8C45.5,62.3,46,63.1,47.3,64z M77.3,67.8c-1.6-1-3.3-1.5-5-1.5c-1.8,0-3.6,0.2-5.5,0.6l10.8,6.6
				c1.2-1,1.8-1.9,1.9-2.9C79.4,69.7,78.7,68.7,77.3,67.8z"/>
		</g>
	</g>
	<g>
		<path class="st0" d="M106,58.7H19.3v5.8c-0.1,6.5,4.1,13,12.7,18c16.9,9.8,44.4,9.8,61.3,0c8.6-5,12.8-11.5,12.7-18
			C106,64.6,106,58.7,106,58.7z"/>
		<ellipse class="st1" cx="62.7" cy="58.7" rx="43.3" ry="25"/>
		<path class="st0" d="M102,58.7c0,0.3,0,0.6,0,0.9c-0.4,5.1-4.2,9.9-10.7,13.8c-7.6,4.5-17.8,7-28.7,7c-10.9,0-21.1-2.5-28.7-7
			c-6.5-3.9-10.3-8.8-10.7-13.8c0-0.3,0-0.6,0-0.9c0-5.4,3.8-10.6,10.7-14.8c7.6-4.5,17.8-7,28.7-7c10.9,0,21.1,2.5,28.7,7
			C98.2,48.1,102,53.4,102,58.7z"/>
		<path class="st1" d="M102,59.7c-0.4,5.1-4.2,9.9-10.7,13.8c-7.6,4.5-17.8,7-28.7,7c-10.9,0-21.1-2.5-28.7-7
			c-6.5-3.9-10.3-8.8-10.7-13.8c0.4-5.1,4.2-9.9,10.7-13.8c7.6-4.5,17.8-7,28.7-7c10.9,0,21.1,2.5,28.7,7
			C97.8,49.8,101.6,54.6,102,59.7z"/>
		<g>
			<path class="st0" d="M80.7,70.8c-1.7,0.9-3.4,1.6-5.2,2.1c-1.8,0.5-3.5,0.8-5.1,1c-1.6,0.2-3,0.2-4.3,0.1
				c-1.2-0.1-2.2-0.4-2.8-0.8c-0.3-0.2-0.6-0.4-0.8-0.7c-0.2-0.3-0.3-0.6-0.4-0.9c-0.1-0.3,0-0.6,0.1-0.9c0.1-0.3,0.3-0.5,0.7-0.7
				c0.4-0.2,1.1-0.4,1.9-0.4c0.8,0,1.8-0.1,2.9-0.1c1.1-0.1,2.4-0.2,3.7-0.4c1.4-0.2,2.8-0.7,4.2-1.4l-12-7.4
				c-1.6,0.4-3.3,0.8-5,1.2c-1.7,0.4-3.4,0.6-5.2,0.7c-1.7,0.1-3.4-0.1-5.2-0.4c-1.7-0.3-3.4-1-5-2c-1.6-1-2.7-2-3.2-3
				c-0.5-1-0.7-2-0.5-3c0.2-1,0.7-1.9,1.6-2.9c0.8-0.9,1.9-1.8,3-2.5l-1.5-0.9c-0.3-0.2-0.4-0.4-0.4-0.7c0.1-0.3,0.3-0.6,0.8-0.8
				c0.4-0.2,0.9-0.3,1.5-0.4c0.6,0,1,0,1.3,0.2l1.4,0.9c0.9-0.5,2-1,3.2-1.4c1.2-0.5,2.4-0.9,3.6-1.2c1.2-0.3,2.3-0.5,3.3-0.5
				c1,0,1.9,0.1,2.5,0.5c0.2,0.1,0.5,0.4,0.7,0.6c0.3,0.3,0.4,0.5,0.5,0.8c0.1,0.3,0.1,0.6,0,0.9c-0.1,0.3-0.4,0.5-0.8,0.8
				c-0.3,0.2-0.8,0.3-1.3,0.4c-0.5,0.1-1.2,0.2-1.9,0.3c-0.7,0.1-1.5,0.3-2.4,0.6c-0.9,0.2-1.8,0.6-2.9,1.1l10.4,6.4
				c1.6-0.4,3.3-0.8,5-1.1c1.7-0.3,3.4-0.5,5.2-0.5c1.8,0,3.5,0.2,5.3,0.6c1.8,0.4,3.5,1.2,5.3,2.2c3.1,1.9,4.7,3.9,4.6,6
				c-0.1,2.1-1.4,4-4,5.8l1.7,1.1c0.3,0.2,0.4,0.4,0.3,0.8c-0.1,0.3-0.4,0.6-0.8,0.8c-0.5,0.3-1,0.4-1.5,0.4c-0.5,0-1-0.1-1.3-0.3
				L80.7,70.8z M48.4,56.5c0.7,0.4,1.5,0.7,2.3,0.9c0.8,0.2,1.6,0.3,2.5,0.2c0.8,0,1.7-0.1,2.7-0.3c0.9-0.2,1.9-0.4,2.8-0.6L49.3,51
				c-1.4,0.9-2.2,1.9-2.5,2.8C46.5,54.8,47,55.7,48.4,56.5z M78.3,60.4c-1.6-1-3.3-1.5-5-1.5c-1.8,0-3.6,0.2-5.5,0.6l10.8,6.6
				c1.2-1,1.8-1.9,1.9-2.9C80.5,62.2,79.8,61.3,78.3,60.4z"/>
		</g>
	</g>
	<g>
		<path class="st0" d="M107.9,50.8H21.2v5.8c-0.1,6.5,4.1,13,12.7,18c16.9,9.8,44.4,9.8,61.3,0c8.6-5,12.8-11.5,12.7-18
			C107.9,56.6,107.9,50.8,107.9,50.8z"/>
		<ellipse class="st1" cx="64.6" cy="50.8" rx="43.3" ry="25"/>
		<path class="st0" d="M103.9,50.8c0,0.3,0,0.6,0,0.9c-0.4,5.1-4.2,9.9-10.7,13.8c-7.6,4.5-17.8,7-28.7,7c-10.9,0-21.1-2.5-28.7-7
			c-6.5-3.9-10.3-8.8-10.7-13.8c0-0.3,0-0.6,0-0.9c0-5.4,3.8-10.6,10.7-14.8c7.6-4.5,17.8-7,28.7-7c10.9,0,21.1,2.5,28.7,7
			C100.1,40.2,103.9,45.4,103.9,50.8z"/>
		<path class="st1" d="M103.9,51.7c-0.4,5.1-4.2,9.9-10.7,13.8c-7.6,4.5-17.8,7-28.7,7c-10.9,0-21.1-2.5-28.7-7
			c-6.5-3.9-10.3-8.8-10.7-13.8c0.4-5.1,4.2-9.9,10.7-13.8c7.6-4.5,17.8-7,28.7-7c10.9,0,21.1,2.5,28.7,7
			C99.7,41.8,103.5,46.7,103.9,51.7z"/>
		<g>
			<path class="st0" d="M82.6,62.8c-1.7,0.9-3.4,1.6-5.2,2.1c-1.8,0.5-3.5,0.8-5.1,1c-1.6,0.2-3,0.2-4.3,0.1
				c-1.2-0.1-2.2-0.4-2.8-0.8c-0.3-0.2-0.6-0.4-0.8-0.7c-0.2-0.3-0.3-0.6-0.4-0.9c-0.1-0.3,0-0.6,0.1-0.9c0.1-0.3,0.3-0.5,0.7-0.7
				c0.4-0.2,1.1-0.4,1.9-0.4c0.8,0,1.8-0.1,2.9-0.1c1.1-0.1,2.4-0.2,3.7-0.4c1.4-0.2,2.8-0.7,4.2-1.4l-12-7.4
				c-1.6,0.4-3.3,0.8-5,1.2c-1.7,0.4-3.4,0.6-5.2,0.7c-1.7,0.1-3.4-0.1-5.2-0.4c-1.7-0.3-3.4-1-5-2c-1.6-1-2.7-2-3.2-3
				c-0.5-1-0.7-2-0.5-3c0.2-1,0.7-1.9,1.6-2.9c0.8-0.9,1.9-1.8,3-2.5l-1.5-0.9c-0.3-0.2-0.4-0.4-0.4-0.7c0.1-0.3,0.3-0.6,0.8-0.8
				c0.4-0.2,0.9-0.3,1.5-0.4c0.6,0,1,0,1.3,0.2l1.4,0.9c0.9-0.5,2-1,3.2-1.4c1.2-0.5,2.4-0.9,3.6-1.2c1.2-0.3,2.3-0.5,3.3-0.5
				c1,0,1.9,0.1,2.5,0.5c0.2,0.1,0.5,0.4,0.7,0.6c0.3,0.3,0.4,0.5,0.5,0.8c0.1,0.3,0.1,0.6,0,0.9c-0.1,0.3-0.4,0.5-0.8,0.8
				c-0.3,0.2-0.8,0.3-1.3,0.4c-0.5,0.1-1.2,0.2-1.9,0.3c-0.7,0.1-1.5,0.3-2.4,0.6C56,40.6,55,41,54,41.5l10.4,6.4
				c1.6-0.4,3.3-0.8,5-1.1c1.7-0.3,3.4-0.5,5.2-0.5c1.8,0,3.5,0.2,5.3,0.6c1.8,0.4,3.5,1.2,5.3,2.2c3.1,1.9,4.7,3.9,4.6,6
				c-0.1,2.1-1.4,4-4,5.8l1.7,1.1c0.3,0.2,0.4,0.4,0.3,0.8c-0.1,0.3-0.4,0.6-0.8,0.8c-0.5,0.3-1,0.4-1.5,0.4c-0.5,0-1-0.1-1.3-0.3
				L82.6,62.8z M50.3,48.6c0.7,0.4,1.5,0.7,2.3,0.9c0.8,0.2,1.6,0.3,2.5,0.2c0.8,0,1.7-0.1,2.7-0.3c0.9-0.2,1.9-0.4,2.8-0.6
				l-9.3-5.7C49.9,44,49,45,48.7,45.9C48.4,46.9,49,47.7,50.3,48.6z M80.2,52.4c-1.6-1-3.3-1.5-5-1.5c-1.8,0-3.6,0.2-5.5,0.6
				l10.8,6.6c1.2-1,1.8-1.9,1.9-2.9C82.4,54.3,81.7,53.3,80.2,52.4z"/>
		</g>
	</g>
	<path class="st2" d="M18.6,98.2c2.1,10.9,16.6,17.4,22.9,19c7.4-8.7,8.8-25.7,9.3-42.5c0,0,17.8-9.9,21-16.8
		c3.8-8.2,0.6-12-10.2-11.6L28.3,59.9L18.6,98.2z"/>
	<g>
		<path class="st3" d="M47.1,30.2l-5.2,7l-5.9,10.3c-1.6,1.9-6.6,0.1-5.6-3.1l5-11.7l9.5-16.8l2.9,6.1L47.1,30.2z"/>
		<path d="M30.4,86.2c0.7,0.8,0.9,2.9,1,5.2c-0.4,2.4-2.7,2.4-4.5,2.9c-3.6,0.9-5.2,3.8-10,4.2c-2.9,0.2-4.9-0.2-5.6-2
			c-0.2-0.8,0.3-1.7,1.2-2.7c0,0,6.4-3.5,6.5-3.7c0.2-0.1,2.9-2.6,3-2.8c0-0.2,1.3-5.5,1.3-5.5l6.5-0.6L30.4,86.2z"/>
		<path d="M45.6,94.6c0.8,2,0.4,2.5,0.3,4.1c-0.2,0.9-0.5,1.3-0.8,2.4c-0.3,1.4,0,3.8-2,5.4c-2.3,2.2-7.1,2.7-8.8,0.7
			c-0.1-1,0.4-3.3,1.5-5.3l2.8-5.8l0.3-4.3l6.7-1.4L45.6,94.6z"/>
		<path class="st4" d="M67,60.4c-3.6,3.4-10.6,8.6-18,13.6c0.7,3.9-1.2,12.8-2.8,21.2c-1.4,2.8-8.3,1.6-8.3,0
			c0.4-10.4,0.5-23.4,1.5-26.4c4.8-6.8,9.5-12.9,13.7-15.7l7.4-4.1l6.5,5.2V60.4z"/>
		<path class="st4" d="M54.5,56.4c-3.6,3.4-16.1,4.3-22,7.7c0.7,3.9,0.5,14.2-1.1,22.6C30,89.4,22,88.7,22,87
			c0.4-10.4-1.6-23.2-0.7-26.2c1.7-7.8,11-10.5,22.8-15l3.5-0.8l3.5,1L54.5,56.4z"/>
		<path class="st3" d="M49,53.2c0,0.1,0,0.1,0.1,0.2c0.3,0.7,0.8,1.1,1.4,1.2C52.9,55,57.4,52,60.6,53c5.5,3.4,3.9,10.3,5.7,9.5
			c2.1-1,4-4.8,4.6-8.3c0,0,1.6-15.3,0.7-25.1c-0.2-2.5-0.7-4.6-1.3-6c-4-5.8-8.9-9-13.6-11.5l-10,0.9c-2.1,2.3-3.1,5.9-3.4,10.1
			c0,0,1.3,10.6,4.5,17.9c0.3,0.8,0.3,1.5,0.1,2.1c-0.8,2.2-4.8,3-4.8,3C42.8,47,46.7,46.6,49,53.2z"/>
		<path class="st5" d="M52.8,19.6l7.4-0.7l-9.9,21.9c-4-7.6-5.4-15.1-2.1-23.6L52.8,19.6z"/>
		<path class="st6" d="M52.9,19.9l0.5,2.8l-1.5,2.8c-0.3,4.1-1,8.5-0.6,11.6l-1.1,4.1l-1.8-3.9c0.5-5,1.5-9.6,2.2-12.8L50.3,21
			l1.8-1.4L52.9,19.9z"/>
		<path class="st7" d="M55.6,10.6l4.3,2.8c2.5,6-2.3,8.9-5.2,12.6l-2.4-5.2l-4.7,1.3l1-8.9L55.6,10.6z"/>
		<path class="st4" d="M58.2,12.4c3.2,2,2,6.6-1.1,10.9C54.3,27.3,50,35.8,50,41.9c2.6-6.1,7.4-13.9,10.3-16.3l-1.1-2.1l2,0.3
			c1.7-2.8,2.4-5.6,1.9-8.2L58.2,12.4z"/>
		<path class="st4" d="M51,12.2c-4,4.5-5,21.9-0.8,29.1C45.9,37,44.1,30,44.7,18.8l1.1-0.8l-0.4-1.2l3.3-4.7L51,12.2z"/>
		<g>
			<path class="st8" d="M51.2,20.4c0.4,0.4,0.5,0.5,1,0.5c4.7,0.4,6.9-5.6,5.3-8.5c-1.4-2.5-1.7-3.5-1.7-3.5l-6.6,4.7
				c0,0-0.2,0.7,0.2,1.7C49.9,17,50,19.3,51.2,20.4z"/>
			<path class="st9" d="M51.7,20.8c2.2,0.5,5.2-1.5,3.7-8.5l-5.8,3C50.2,17,50,19.8,51.7,20.8z"/>
			<path class="st8" d="M55.7,10.4c0,0,0.5,3.5-0.4,5.4c-0.9,1.9-2.9,3.5-3.7,3.9c-0.8,0.4-1.6,0.6-2.4,0.1
				c-0.8-0.4-3.5-6.4-3.5-6.4c-0.9-2.3-1.1-3.1-1.4-4.5c-0.3-2.1-0.6-6.9,5.3-8.3c2.8-0.7,5.3,0.6,6.6,2.9c1,1.8,0.8,5.7,0.8,5.7
				L55.7,10.4z"/>
			<path d="M57.1,9.7L55,12.1l-0.8-1.5c-0.3-0.8-1.2-1.1-1.9-0.8c-1.2,0.6-3.2,1.3-5.5,1.1c-2.1-0.2-2.9-1.2-2.9-1.2
				c-2.3-3.1,1.2-7.5,4.7-8.8c4.2-1.5,7,0.6,8,3.1C57.5,6.3,57.1,9.7,57.1,9.7z"/>
			<path class="st8" d="M55.7,7.7c0.3-0.3,0.8-0.5,1.2-0.3c0.2,0.1,0.3,0.4,0.4,0.6c0.1,0.2,0,0.5,0,0.7c0,0.4-0.1,0.9-0.2,1.3
				c-0.1,0.3-0.2,0.7-0.5,0.9c-0.3,0.2-0.6,0.6-0.9,0.4c-0.3-0.2-0.6-1-0.6-1.3C55,9.3,55.1,8.3,55.7,7.7z"/>
		</g>
		<g>
			<polygon class="st10" points="16.6,55.3 39,68.2 53,60.1 53,59.4 30.6,47.2 			"/>
			<polygon class="st11" points="16.6,54.6 39,67.5 53,59.4 30.6,46.5 			"/>
			<g>
				<polygon class="st7" points="19.9,55.1 21.4,55.9 22.5,55.3 21,54.5 				"/>
				<polygon class="st7" points="21.6,56.1 23,56.9 24.1,56.3 22.7,55.4 				"/>
				<polygon class="st7" points="23.3,57 24.7,57.9 25.8,57.2 24.4,56.4 				"/>
				<polygon class="st7" points="24.9,58 26.4,58.8 27.5,58.2 26,57.4 				"/>
				<polygon class="st7" points="26.6,59 28,59.8 29.1,59.2 27.7,58.3 				"/>
				<polygon class="st7" points="28.3,59.9 29.7,60.8 30.8,60.1 29.4,59.3 				"/>
				<polygon class="st7" points="29.9,60.9 31.4,61.7 32.5,61.1 31,60.3 				"/>
				<polygon class="st7" points="31.6,61.9 33,62.7 34.1,62.1 32.7,61.2 				"/>
				<polygon class="st7" points="33.3,62.8 34.7,63.6 35.8,63 34.4,62.2 				"/>
				<polygon class="st7" points="35,63.8 36.4,64.6 37.5,64 36,63.2 				"/>
				<polygon class="st7" points="36.6,64.7 38.1,65.6 39.2,64.9 37.7,64.1 				"/>
				<polygon class="st7" points="21.9,54 23.3,54.8 24.4,54.2 23,53.3 				"/>
				<polygon class="st7" points="23.6,54.9 25,55.8 26.1,55.1 24.7,54.3 				"/>
				<polygon class="st7" points="25.2,55.9 26.7,56.7 27.8,56.1 26.3,55.3 				"/>
				<polygon class="st7" points="26.9,56.9 28.3,57.7 29.4,57.1 28,56.2 				"/>
				<polygon class="st7" points="28.6,57.8 30,58.7 31.1,58 29.7,57.2 				"/>
				<polygon class="st7" points="30.2,58.8 31.7,59.6 32.8,59 31.3,58.2 				"/>
				<polygon class="st7" points="31.9,59.8 33.3,60.6 34.4,60 33,59.1 				"/>
				<polygon class="st7" points="33.6,60.7 35,61.6 36.1,60.9 34.7,60.1 				"/>
				<polygon class="st7" points="35.2,61.7 36.7,62.5 37.8,61.9 36.3,61.1 				"/>
				<polygon class="st7" points="36.9,62.7 38.4,63.5 39.4,62.8 38,62 				"/>
				<polygon class="st7" points="38.6,63.6 40,64.4 41.1,63.8 39.7,63 				"/>
				<polygon class="st7" points="23.1,53.2 24.6,54.1 25.7,53.4 24.2,52.6 				"/>
				<polygon class="st7" points="24.8,54.2 26.2,55 27.3,54.4 25.9,53.6 				"/>
				<polygon class="st7" points="26.5,55.2 27.9,56 29,55.4 27.6,54.5 				"/>
				<polygon class="st7" points="28.2,56.1 29.6,57 30.7,56.3 29.2,55.5 				"/>
				<polygon class="st7" points="29.8,57.1 31.3,57.9 32.4,57.3 30.9,56.5 				"/>
				<polygon class="st7" points="31.5,58.1 32.9,58.9 34,58.3 32.6,57.4 				"/>
				<polygon class="st7" points="33.2,59 34.6,59.9 35.7,59.2 34.3,58.4 				"/>
				<polygon class="st7" points="34.8,60 36.3,60.8 37.4,60.2 35.9,59.4 				"/>
				<polygon class="st7" points="36.5,61 37.9,61.8 39,61.2 37.6,60.3 				"/>
				<polygon class="st7" points="38.2,61.9 39.6,62.8 40.7,62.1 39.3,61.3 				"/>
				<polygon class="st7" points="24.4,52.5 25.8,53.4 26.9,52.7 25.5,51.9 				"/>
				<polygon class="st7" points="26.1,53.5 27.5,54.3 28.6,53.7 27.2,52.9 				"/>
				<polygon class="st7" points="27.7,54.5 29.2,55.3 30.3,54.6 28.8,53.8 				"/>
				<polygon class="st7" points="29.4,55.4 30.8,56.2 31.9,55.6 30.5,54.8 				"/>
				<polygon class="st7" points="31.1,56.4 32.5,57.2 33.6,56.6 32.2,55.7 				"/>
				<polygon class="st7" points="32.7,57.3 34.2,58.2 35.3,57.5 33.8,56.7 				"/>
				<polygon class="st7" points="34.4,58.3 35.9,59.1 36.9,58.5 35.5,57.7 				"/>
				<polygon class="st7" points="36.1,59.3 37.5,60.1 38.6,59.5 37.2,58.6 				"/>
				<polygon class="st7" points="37.8,60.2 39.2,61.1 40.3,60.4 38.9,59.6 				"/>
				<polygon class="st7" points="39.8,62.9 41.1,62.2 39.4,61.2 40.5,60.6 42.2,61.5 42.6,61.8 43.6,62.4 42.7,62.9 42.5,63 
					41.3,63.7 				"/>
				<polygon class="st7" points="27.8,53 27.3,52.8 25.7,51.8 26.7,51.2 28.4,52.1 28.9,52.4 29.9,53 28.8,53.6 				"/>
				<polygon class="st7" points="29,53.7 30.4,54.6 31.5,53.9 30.1,53.1 				"/>
				<polygon class="st7" points="30.7,54.7 32.1,55.5 33.2,54.9 31.8,54.1 				"/>
				<polygon class="st7" points="32.3,55.7 33.8,56.5 34.9,55.9 33.4,55 				"/>
				<polygon class="st7" points="34,56.6 35.4,57.4 36.5,56.8 35.1,56 				"/>
				<polygon class="st7" points="35.7,57.6 37.1,58.4 38.2,57.8 36.8,57 				"/>
				<polygon class="st7" points="37.3,58.5 38.8,59.4 39.9,58.7 38.4,57.9 				"/>
				<polygon class="st7" points="39,59.5 40.4,60.3 41.5,59.7 40.1,58.9 				"/>
				<polygon class="st7" points="42.1,61.3 41.9,61.2 40.7,60.5 41.8,59.8 43,60.5 43.2,60.7 44.9,61.6 43.8,62.3 				"/>
				<polygon class="st7" points="26.9,51.1 28.3,51.9 29.4,51.3 28,50.4 				"/>
				<polygon class="st7" points="28.6,52 30,52.9 31.1,52.2 29.7,51.4 				"/>
				<polygon class="st7" points="30.2,53 31.7,53.8 32.8,53.2 31.3,52.4 				"/>
				<polygon class="st7" points="39.3,58.2 38.6,57.8 38.4,57.7 36.9,56.9 36.7,56.7 35.3,55.9 35,55.8 33.6,54.9 31.9,54 33,53.3 
					34.7,54.3 36.1,55.1 36.4,55.3 37.8,56.1 38,56.2 39.5,57.1 39.7,57.2 40.4,57.6 41.1,58 40,58.7 				"/>
				<polygon class="st7" points="40.3,58.8 41.7,59.6 42.8,59 41.4,58.2 				"/>
				<polygon class="st7" points="41.9,59.8 43.4,60.6 44.5,59.9 43,59.1 				"/>
				<polygon class="st7" points="43.6,60.7 45,61.5 46.1,60.9 44.7,60.1 				"/>
			</g>
			<polygon class="st12" points="34.9,53.4 41,56.9 44.1,55.1 38,51.6 			"/>
			<polygon class="st10" points="9.7,40.7 32,53.6 39,67.5 16.7,54.6 9.3,41.1 			"/>
			<polygon class="st11" points="9.3,41.1 31.6,54.1 38.6,68 16.2,55.1 			"/>
		</g>
		<path class="st13" d="M49,53.2l1.5,1.4C52.9,55,57.4,52,60.6,53c5.5,3.4,3.9,10.3,5.7,9.5c2.1-1,4-4.8,4.6-8.3
			c0,0,1.6-15.3,0.7-25.1c0,0-0.4-1.3-0.4-1.3L62.6,29c-0.9,8.3-6.4,15.5-11.5,14.1l-3.1-0.6c-0.8,2.2-4.8,3-4.8,3
			C42.8,47,46.7,46.6,49,53.2z"/>
		<path class="st3" d="M71.1,42.1c-0.5,3-2.3,5.6-4.8,7.2c-3.5,2.5-7.7,4.8-12.5,7.6c-2.5,1.4-6.2-3.8-5.1-5
			c3.5-3.2,7.7-6.4,12.6-9.6L62,30.2c0.7-5.5,0.6-11.4,5.9-10.1C73,23,72.1,36.5,71.1,42.1z"/>
		<path class="st8" d="M51.8,56.3l-1.6,0.8c-1.8,1.4-3.4,1.6-5,1.6l-1.7,1.1l-1.3,1.8c-0.9,1.1-1.3,0.4-0.9-0.5L42,60l1.4-1.7
			L42.9,58l-1.2,0.4l-1.7,1l-0.5,0.5c-0.2,0.3-0.7,0.4-1,0.2l-0.1,0L38.2,60c-0.3,0.1-0.6,0-0.7-0.2c-0.2-0.3-0.2-0.6,0-0.9l0.8-1.3
			l1.4-1.2l-1.1,0.2l-0.9,0.7L37,58.1c-0.7,0.7-1.1,0.1-0.8-0.6l0.7-1.1l1.9-1.4l3-0.9l5.3-0.4l1.9-0.8
			C50.7,51.8,53.1,55.3,51.8,56.3z"/>
		<g>
			<defs>
				<polygon id="SVGID_1_" points="20.7,47 32,53.6 33.7,57 37.8,45.4 36.9,44.1 27.7,37.1 				"/>
			</defs>
			<clipPath id="SVGID_2_">
				<use xlink:href="#SVGID_1_"  style="overflow:visible;"/>
			</clipPath>
			<path class="st14" d="M34.6,46.7l-0.3,0.6l0.1,3l-0.9,2.1l-0.5,1.3l-1.2,1.3c-0.6,0.5-1.2-0.2-0.8-1.1l0.8-1.4l0-1.4
				c-0.8-0.4-1.6-0.3-2.4,0.2c0,0-0.5,1.8-0.6,1.8c0,0.1-0.4,1.7-0.4,1.7c-0.2,1.4-1.3,1.3-1.2,0.2l0.3-2.1l0.2-1.6l-1.2,2l-0.6,1.7
				c-0.4,1-1.3,0.9-1.2,0l0.4-1.6l0.5-1.5l-1.2,1.4l-0.4,1.3c-0.1,0.4-0.4,0.8-0.8,0.8c-0.4,0-0.5-0.4-0.4-0.7
				c-0.2-0.1-0.2-0.6-0.1-0.9l1-2l3.3-3.5l3.2-2.6l0.9-1.4C32.3,43.2,35.2,45.3,34.6,46.7z"/>
		</g>
	</g>
</g>
</svg>
