<?xml version="1.0" encoding="utf-8"?>
<!-- Generator: Adobe Illustrator 24.0.0, SVG Export Plug-In . SVG Version: 6.00 Build 0)  -->
<svg version="1.1" id="Layer_1" xmlns="http://www.w3.org/2000/svg" xmlns:xlink="http://www.w3.org/1999/xlink" x="0px" y="0px"
	 viewBox="0 0 113.3 110.2" style="enable-background:new 0 0 113.3 110.2;" xml:space="preserve">
<style type="text/css">
	.st0{fill:#FFB294;}
	.st1{fill:#D4EEFF;}
	.st2{fill:#333333;}
	.st3{fill:#999999;}
	.st4{fill:#4D4D4D;}
	.st5{fill:#0B151A;}
	.st6{fill:#1E3A47;}
	.st7{fill:#EB3B58;}
	.st8{fill:#FFFFFF;}
	.st9{opacity:0.5;fill:#227FBC;}
	.st10{fill:#666666;}
	.st11{opacity:0.5;fill:#FFB294;}
	.st12{fill:#CCCCCC;}
	.st13{fill:#1A1A1A;}
	.st14{fill:#F29B79;}
	.st15{fill:#E02F36;}
	.st16{fill:#FF4A51;}
	.st17{opacity:0.3;fill:#CF3E2D;}
	.st18{fill:#B1D8F2;}
	.st19{fill:#722811;}
</style>
<title>3</title>
<g>
	<path class="st0" d="M47.6,35.8l1.8-0.4L51,35l2.7-0.2c0.8-0.1,1.5-0.4,1.9-1l0.2-0.3c0.5-0.1,0.9-0.5,1.1-1l0.4-1l0.8-1.3l1.2-2.5
		c0.3-0.7-0.2-0.7-0.7-0.4L56.8,29l-1,0.7l-2.3-0.2v-0.7l1.3-1l0.8-0.5c0.7-0.5,0.4-1-0.3-0.8l-1.8,0.6L51.1,29l-1.5,2.9l-2,1.3
		V35.8z"/>
	<path class="st1" d="M20,25.6c6.6,3.2,11.1,6.6,16.5,8l12.9-1.4c0.7,0.8,0.6,4,0.4,5.2c-4.5,2.6-8.6,2.5-13.3,2.9
		c-6.2-0.9-12.3-4.3-19.5-6.4L20,25.6z"/>
	<g>
		<path class="st2" d="M9.8,90.4c0,0.6-0.5,1.1-1.1,1.1c-0.6,0-1.1-0.5-1.1-1.1c0-0.6,0.5-1.1,1.1-1.1C9.3,89.4,9.8,89.9,9.8,90.4z"
			/>
		<path class="st2" d="M26.3,95.3c0,0.6-0.5,1.1-1.1,1.1c-0.6,0-1.1-0.5-1.1-1.1c0-0.6,0.5-1.1,1.1-1.1
			C25.8,94.2,26.3,94.7,26.3,95.3z"/>
		<path class="st2" d="M39,87.8c0,0.6-0.5,1.1-1.1,1.1c-0.6,0-1.1-0.5-1.1-1.1c0-0.6,0.5-1.1,1.1-1.1C38.6,86.8,39,87.2,39,87.8z"/>
		<path class="st2" d="M31.1,78.1c0,0.6-0.5,1.1-1.1,1.1c-0.6,0-1.1-0.5-1.1-1.1c0-0.6,0.5-1.1,1.1-1.1
			C30.6,77.1,31.1,77.5,31.1,78.1z"/>
		<path class="st2" d="M12.4,80.1c0,0.6-0.5,1.1-1.1,1.1c-0.6,0-1.1-0.5-1.1-1.1c0-0.6,0.5-1.1,1.1-1.1C12,79,12.4,79.5,12.4,80.1z"
			/>
		<g>
			<g>
				<path class="st2" d="M25.8,84.5l5.2-6.9v-0.5l-1.5,0l-6.7,6.5c-0.5,0-0.9,0-1.3,0.1l-9.8-5L10.4,79v0.5l8.6,5.7
					c-0.1,0.3-0.2,0.5-0.2,0.8L7.6,89.2v0.5l0.8,0.9l12-3c0.4,0.2,0.8,0.3,1.2,0.4l2.9,7.4l1.7-0.2v-0.5l-1.2-7.1
					c0.2-0.1,0.4-0.2,0.5-0.3c0.2-0.1,0.3-0.2,0.4-0.3l13,0.7l0.3-1v-0.5l-12.7-1.2C26.3,84.9,26.1,84.7,25.8,84.5z"/>
			</g>
			<g>
				<path class="st3" d="M25.8,82.6l5.2-5.5l-1.5-0.4l-6.7,5.1c-0.5,0-0.9,0-1.3,0.1l-9.8-3.6L10.4,79l8.6,4.3
					c-0.1,0.3-0.2,0.5-0.2,0.8L7.6,89.2l0.8,0.9l12-4.4c0.4,0.2,0.8,0.3,1.2,0.4l2.9,8.7l1.7-0.2l-1.2-8.9c0.2-0.1,0.4-0.2,0.5-0.3
					c0.2-0.1,0.3-0.2,0.4-0.3l13,2.1l0.3-1l-12.7-3C26.3,83.1,26.1,82.8,25.8,82.6z"/>
			</g>
		</g>
		<g>
			<path class="st4" d="M24.4,73.8c-0.1-0.1-0.2-0.2-0.3-0.3c-0.8-0.5-2.1-0.5-2.9,0c-0.1,0.1-0.2,0.2-0.3,0.3h-0.3v9.7
				c0,0.3,0.2,0.6,0.6,0.8c0.8,0.5,2.1,0.5,2.9,0c0.4-0.2,0.6-0.5,0.6-0.8v-9.7H24.4z"/>
			<path class="st4" d="M24,73c0.8,0.5,0.8,1.2,0,1.7c-0.8,0.5-2.1,0.5-2.9,0c-0.8-0.5-0.8-1.2,0-1.7C21.9,72.5,23.2,72.5,24,73z"/>
			<path class="st3" d="M25.2,67c-0.3-0.3-0.8-0.6-1.4-0.7c-0.8-0.2-1.7-0.2-2.5,0c-0.6,0.2-1.1,0.4-1.4,0.7h-0.4v7.4
				c0,0.6,0.6,1.2,1.7,1.6c0.9,0.3,1.8,0.3,2.7,0c1.1-0.3,1.7-1,1.7-1.6V67H25.2z"/>
			<path class="st4" d="M23.9,65.4c2.3,0.7,2.3,2.5,0,3.2c-0.9,0.3-1.8,0.3-2.7,0c-2.3-0.7-2.3-2.5,0-3.2
				C22.1,65.2,23,65.2,23.9,65.4z"/>
		</g>
	</g>
	<g>
		<path d="M33.7,53.4l-12.5-7.2L33.7,53.4z"/>
		<path d="M33.7,55.1c-0.3,0-0.6-0.1-0.9-0.2l-12.5-7.2c-0.8-0.5-1.1-1.6-0.6-2.4c0.5-0.8,1.6-1.1,2.4-0.6l12.5,7.2
			c0.8,0.5,1.1,1.6,0.6,2.4C34.9,54.8,34.3,55.1,33.7,55.1z"/>
	</g>
	<g>
		<path class="st2" d="M24.1,79.4l17-9.8c0.3-0.1,0.4-0.5,0.4-0.9v-2.1c0-0.9-0.6-2-1.4-2.4l-16.9-9.7c-0.4-0.2-0.7-0.2-1-0.1
			l-17,9.8L24.1,79.4z"/>
		<path d="M23.2,79.3L6.3,69.5c-0.8-0.4-1.4-1.5-1.4-2.4V65c0-0.9,0.6-1.3,1.4-0.8L23.2,74c0.8,0.4,1.4,1.5,1.4,2.4v2.1
			C24.6,79.3,23.9,79.7,23.2,79.3z"/>
	</g>
	<g>
		<g>
			<path class="st2" d="M0.8,24.7l4.7,37.9l2.9,2.6l17-9.8c0.4-0.2,0.5-0.8,0.2-1.6c-5.1-12.7-9-22.7-9.6-33.9
				c-0.1-0.9-0.7-2-1.5-2.4c-0.4-0.2-0.8-0.3-1-0.1C13.5,17.5,0.8,24.7,0.8,24.7z"/>
			<path d="M7.6,65.2L5.5,64c-0.5-0.3-1.1-0.9-1.3-1.6c-3.6-8.6-5-22-3.8-36.9c0.1-0.8,0.7-1.1,1.5-0.7c0.8,0.4,1.4,1.5,1.5,2.4
				C4,38.4,3.6,51,8.6,63.7C9.1,64.9,8.6,65.7,7.6,65.2z"/>
		</g>
		<g>
			<path d="M17.7,38.6L6.9,44.8c0.2,1.7,0.4,3.4,0.7,5.1l11.7-6.7C18.7,41.6,18.2,40.1,17.7,38.6z"/>
			<path d="M10.5,61.2l11.7-6.7c0,0,1.2-0.7,1.2-0.7c-0.6-1.4-1.1-2.8-1.7-4.2L9.1,56.9C9.5,58.3,10,59.8,10.5,61.2z"/>
			<path d="M13.8,19.9C13.8,19.9,13.8,19.9,13.8,19.9l-2,1.1c0,0-6.5,3.7-6.5,3.7c0.3,0.7,0.6,1.4,0.6,2.1C6,28.1,6,29.4,6.1,30.7
				l8.4-4.8C14.2,23.9,14,21.9,13.8,19.9z"/>
			<path d="M19.6,44.1L7.8,51c0.3,1.6,0.6,3.2,1,4.8l12.5-7.2C20.7,47.1,20.2,45.6,19.6,44.1z"/>
			<path d="M16,32.9l-9.5,5.5c0.1,1.7,0.2,3.5,0.4,5.2l10.5-6.1C16.8,36,16.4,34.4,16,32.9z"/>
			<path d="M14.7,27l-8.5,4.9c0,0.3,0,0.7,0,1c0.1,1.4,0.1,2.8,0.2,4.3l9.3-5.4C15.3,30.2,15,28.6,14.7,27z"/>
		</g>
	</g>
	<path d="M31.7,85.7c-0.9,1.3-1.5,2.8-1.6,4.6c0.3,0.8,1,1.4,1.9,1.7c1.2,2.4,2.6,4,4.2,5.1c1.3,0.6,2.6,1,3.8,1.2
		c1.9,0.3,2-1.9,0.8-3.7c-1-1.3-1.8-2.8-2.4-4.7l0.1-5l-6.2-1.4L31.7,85.7z"/>
	<path d="M41.9,91.5c-0.3,1.8-0.2,2.5,0.7,3.6c0.4,0.5,0.7,0.7,1.1,1.5c0.5,1,1.9,3,3.9,3.5c2.4,0.8,5.7,0.5,6.7-1.5
		c-0.1-0.8-0.3-2.2-2.9-4.1l-3.2-3.7l-1.1-3L41.2,89L41.9,91.5z"/>
	<path class="st5" d="M13,64c6.3,2.9,16.1,7.7,22.5,9.1c1.1,4.9,3.7,11.9,6.4,18.4c2,2.2,7.2,0.3,6.8-1.9c-1.5-7.8-3.8-15.3-5-20.3
		c-0.3-1.4-1.2-2.5-2.4-3.2c-5.4-3.1-14.6-7.5-21.9-10.8L13,64z"/>
	<path class="st6" d="M19.9,54.2c-4.1-1.4,14.9,11.2,14.5,11.8c-2.1,5.4-2.6,11.9-2.9,19.9c0.4,2.1,4,3.2,7.1,3.2
		c1.3-6.8,2.5-14.7,4.5-22.7c0.6-3.3-0.6-6.6-3.2-8.7l-12.4-7.3L19.9,54.2z"/>
	<path class="st1" d="M26.6,51.6c-1.2,0.6-2.4,1.3-3.4,2.1c-2.8,2-5.2,4.7-7.2,7.6c-1.6,2.4-5.3,1.7-5.9-1.1
		c-0.3-1.1-0.4-2.3-0.4-3.6l-2.2-9.7L4.7,35.3l7-7c0,0,5.8-1.5,6-1.5l4.6-0.8c0,0,3.1,5.9,3.9,9.7c0.8,3.8,0.2,10.1,0.9,12.3
		c0.1,0.2,0.1,0.4,0.3,0.6C28,49.7,27.7,51.1,26.6,51.6z"/>
	<path class="st7" d="M17.9,33.1l-0.2,2.3l1.5,2.2C19.7,41,21,47.4,21,50l2.4,3l0.6-3.2c-0.8-4.1-2.9-10.5-3.7-13.2l-0.1-2.9l-1.6-1
		L17.9,33.1z"/>
	<path class="st8" d="M15.1,25.6l-3.4,2.7c-1.7,5.1,2.5,7.2,5.3,10.1l1.6-4.5l4,0.8l-1.5-7.3L15.1,25.6z"/>
	<path class="st9" d="M23.1,53.8c-2.8,2-5.2,4.7-7.2,7.6c-1.6,2.4-5.3,1.7-5.9-1.1c-0.3-1.1-0.4-2.3-0.4-3.6l-2.2-9.7l3.5-5.4
		l3.3,8.2L23.1,53.8z"/>
	<path class="st1" d="M4.7,35.3c-0.6,0.8-1,1.9-1.4,3.1c-0.5,1.8-0.4,3.7-0.1,5.6c0.9,4.5,2,7.8,4.5,12.1c0.9,1.6,8.8,3.4,15.4,5.1
		c0.9,0,2.2-3.4,1.7-5.1c-2.9-1.6-7.1-3.3-12-4.6L11,42.3C9.8,36,6.8,33.7,4.7,35.3z"/>
	<path class="st0" d="M23.8,59.8l2,0.7c1.3,0.3,2.4,0.2,3.7,0.1l2.6,0.8l1.1,0.2c0.5,0.1,0.7-0.4,0.1-0.7l-2.7-1l0.1-0.3l1.5,0.3
		l1.3,0.4c0.7,0.2,0.8-0.4,0.1-0.8L32,58.7l-1.3-0.4l0.1-0.2l1.3,0.3l1.4,0.7c0.7,0.2,1-0.3,0.4-0.7l-1.4-0.7L31,57.1l0.1-0.3
		l1.3,0.2l1.7,0.7c0.7,0.2,0.8-0.3,0.1-0.8l-1.7-0.9l-2.7-0.6l0.1-0.1l0.8-0.1l1.1,0.2c0.7,0.1,1-0.4,0.1-0.8l-1.5-0.4
		c0,0-2.2,0.1-2.7,0.4c-0.7,0.5-2.4,1.8-2.4,1.8l-0.6-0.1C23.8,56.1,22.7,59.4,23.8,59.8z"/>
	<path class="st10" d="M12.2,71.9c-0.5,0-0.8-0.4-0.8-0.8V60.9c0-0.5,0.4-0.8,0.8-0.8s0.8,0.4,0.8,0.8v10.2
		C13,71.6,12.7,71.9,12.2,71.9z"/>
	<g>
		<path d="M18.1,64.3L5.7,57.1L18.1,64.3z"/>
		<path d="M18.1,66.1c-0.3,0-0.6-0.1-0.9-0.2L4.8,58.7c-0.8-0.5-1.1-1.6-0.6-2.4c0.5-0.8,1.6-1.1,2.4-0.6L19,62.8
			c0.8,0.5,1.1,1.6,0.6,2.4C19.3,65.8,18.7,66.1,18.1,66.1z"/>
	</g>
	<g>
		<path class="st0" d="M19.4,33.1c-0.2,0.4-0.5,0.7-0.8,0.8c-3.4,1-6.2-2.9-5.8-5.2c0.3-2.4,0.5-3.6,0.5-3.6l6.6,1.6
			c0,0,0.1,0.6,0.1,1.5C20,29.7,20,31.9,19.4,33.1z"/>
		<path class="st11" d="M19.4,33.1c-0.3,0.2-0.7,0.4-1.1,0.4c-3.1,0-4.1-5.9-4.1-5.9l5.8,0.6C20,29.7,20,31.9,19.4,33.1z"/>
		<path class="st0" d="M13.8,26.2c0,0,0.7,2.9,2,4.1s3.3,1.8,4.1,1.9c0.8,0,1.4,0,1.9-0.6c0.5-0.6,0.8-6,0.8-6c0-2.1,0-2.7-0.3-3.9
			c-0.4-1.7-1.6-5.5-6.6-4.8c-2.4,0.3-3.9,2.1-4.2,4.2c-0.3,1.7,1.1,4.7,1.1,4.7L13.8,26.2z"/>
		<path d="M12.4,26.1l2.4,1.3l0.2-1.4c0-0.7,0.6-1.2,1.2-1.2c1.1,0.1,2.9,0,4.6-0.8c1.6-0.8,1.9-1.9,1.9-1.9
			c0.8-3.1-3.3-5.5-6.3-5.4c-3.7,0.1-5.2,2.6-5.2,4.8C11.1,23.6,12.4,26.1,12.4,26.1z"/>
		<path class="st0" d="M13,24.2c-0.3-0.2-0.8-0.1-1,0.2c-0.1,0.2-0.2,0.4-0.1,0.6c0,0.2,0.1,0.4,0.2,0.6c0.2,0.3,0.3,0.6,0.5,0.9
			c0.2,0.2,0.3,0.5,0.6,0.6c0.3,0.1,0.6,0.3,0.8,0c0.2-0.3,0.1-0.9,0.1-1.2C14,25.2,13.6,24.5,13,24.2z"/>
	</g>
	<g>
		<g>
			<g>
				<path class="st10" d="M85.7,62.4c0.5,0,0.8-0.4,0.8-0.8V51.4c0-0.5-0.4-0.8-0.8-0.8c-0.5,0-0.8,0.4-0.8,0.8v10.2
					C84.9,62.1,85.2,62.4,85.7,62.4z"/>
				<g>
					<circle class="st2" cx="104.4" cy="91.2" r="1.1"/>
					<path class="st2" d="M86.8,96c0,0.6,0.5,1.1,1.1,1.1c0.6,0,1.1-0.5,1.1-1.1c0-0.6-0.5-1.1-1.1-1.1C87.3,95,86.8,95.4,86.8,96z"
						/>
					<circle class="st2" cx="75.1" cy="88.6" r="1.1"/>
					<path class="st2" d="M82,78.9c0,0.6,0.5,1.1,1.1,1.1c0.6,0,1.1-0.5,1.1-1.1c0-0.6-0.5-1.1-1.1-1.1C82.5,77.8,82,78.3,82,78.9z"
						/>
					<circle class="st2" cx="101.8" cy="80.8" r="1.1"/>
					<g>
						<g>
							<path class="st2" d="M87.4,85.2l-5.2-6.9v-0.5l1.5,0l6.7,6.5c0.5,0,0.9,0,1.3,0.1l9.8-5l1.2,0.2v0.5l-8.6,5.7
								c0.1,0.3,0.2,0.5,0.2,0.8l11.3,3.4v0.5l-0.8,0.9l-12-3c-0.4,0.2-0.8,0.3-1.2,0.4L88.7,96L87,95.9v-0.5l1.2-7.1
								c-0.2-0.1-0.4-0.2-0.5-0.3c-0.2-0.1-0.3-0.2-0.4-0.3l-13,0.7l-0.3-1v-0.5l12.8-1.2C86.9,85.6,87.1,85.4,87.4,85.2z"/>
						</g>
						<g>
							<path class="st12" d="M87.4,83.3l-5.2-5.6l1.5-0.4l6.7,5.1c0.5,0,0.9,0,1.3,0.1l9.8-3.6l1.2,0.7L94.1,84
								c0.1,0.3,0.2,0.5,0.2,0.8l11.3,5.2l-0.8,0.9l-12-4.4c-0.4,0.2-0.8,0.3-1.2,0.4l-2.9,8.7L87,95.4l1.2-8.9
								c-0.2-0.1-0.4-0.2-0.5-0.3c-0.2-0.1-0.3-0.2-0.4-0.3l-13,2.1l-0.3-1l12.8-3C86.9,83.8,87.1,83.6,87.4,83.3z"/>
						</g>
					</g>
					<g>
						<path class="st4" d="M88.7,74.6c0.1-0.1,0.2-0.2,0.3-0.3c0.8-0.5,2.1-0.5,2.9,0c0.1,0.1,0.2,0.2,0.3,0.3h0.3v9.8
							c0,0.3-0.2,0.6-0.6,0.8c-0.8,0.5-2.1,0.5-2.9,0c-0.4-0.2-0.6-0.5-0.6-0.8v-9.8H88.7z"/>
						<path class="st4" d="M89.1,73.7c-0.8,0.5-0.8,1.2,0,1.7c0.8,0.5,2.1,0.5,2.9,0c0.8-0.5,0.8-1.2,0-1.7
							C91.2,73.2,89.9,73.2,89.1,73.7z"/>
						<path class="st12" d="M87.9,67.7c0.3-0.3,0.8-0.6,1.4-0.7c0.8-0.2,1.7-0.2,2.5,0c0.6,0.2,1.1,0.4,1.4,0.7h0.4v7.4
							c0,0.6-0.6,1.2-1.7,1.6c-0.9,0.3-1.8,0.3-2.7,0c-1.1-0.3-1.7-1-1.7-1.6v-7.4H87.9z"/>
						<path class="st4" d="M89.2,66.1c-2.3,0.7-2.3,2.5,0,3.2c0.9,0.3,1.8,0.3,2.7,0c2.3-0.7,2.3-2.5,0-3.2
							C91,65.9,90.1,65.9,89.2,66.1z"/>
					</g>
				</g>
				<g>
					<path d="M79.4,54.1l12.5-7.2L79.4,54.1z"/>
					<path d="M79.4,55.8c0.3,0,0.6-0.1,0.9-0.2l12.5-7.2c0.8-0.5,1.1-1.6,0.6-2.4c-0.5-0.8-1.6-1.1-2.4-0.6l-12.5,7.2
						c-0.8,0.5-1.1,1.6-0.6,2.4C78.2,55.5,78.8,55.8,79.4,55.8z"/>
				</g>
				<g>
					<path class="st13" d="M89,80.1l-17-9.8c-0.3-0.1-0.4-0.5-0.4-0.9v-2.1c0-0.9,0.6-2,1.4-2.4l16.9-9.7c0.4-0.2,0.7-0.2,1-0.1
						l17,9.8L89,80.1z"/>
					<path d="M90,80l16.9-9.7c0.8-0.4,1.4-1.5,1.4-2.4v-2.1c0-0.9-0.6-1.3-1.4-0.8L90,74.7c-0.8,0.4-1.4,1.5-1.4,2.4v2.1
						C88.6,80.1,89.2,80.4,90,80z"/>
				</g>
				<g>
					<g>
						<path class="st2" d="M112.3,25.4l-4.7,38l-2.9,2.6l-17-9.8c-0.4-0.2-0.5-0.8-0.2-1.6c5.1-12.7,9-22.7,9.6-33.9
							c0.1-0.9,0.7-2,1.5-2.4c0.4-0.2,0.8-0.3,1-0.1C99.7,18.2,112.3,25.4,112.3,25.4z"/>
						<path d="M105.5,65.9l2.1-1.2c0.5-0.3,1.1-0.9,1.3-1.6c3.6-8.6,5-22.1,3.8-36.9c-0.1-0.8-0.7-1.1-1.5-0.7
							c-0.8,0.4-1.4,1.5-1.5,2.4c-0.7,11.2-0.2,23.8-5.3,36.5C104,65.6,104.6,66.4,105.5,65.9z"/>
					</g>
					<g>
						<path d="M95.5,39.3l10.8,6.2c-0.2,1.7-0.4,3.4-0.7,5.1l-11.7-6.7C94.4,42.3,95,40.8,95.5,39.3z"/>
						<path d="M102.6,61.9L91,55.2c0,0-1.2-0.7-1.2-0.7c0.6-1.4,1.1-2.8,1.7-4.2l12.6,7.3C103.6,59,103.2,60.5,102.6,61.9z"/>
						<path d="M99.3,20.6C99.3,20.5,99.3,20.5,99.3,20.6l2,1.1c0,0,6.5,3.7,6.5,3.7c-0.3,0.7-0.6,1.4-0.6,2.1
							c-0.1,1.3-0.1,2.6-0.2,3.9l-8.4-4.9C98.9,24.5,99.2,22.6,99.3,20.6z"/>
						<path d="M93.5,44.8l11.8,6.8c-0.3,1.6-0.6,3.2-1,4.8l-12.5-7.2C92.4,47.8,93,46.3,93.5,44.8z"/>
						<path d="M97.1,33.5l9.6,5.5c-0.1,1.7-0.2,3.5-0.4,5.2l-10.5-6.1C96.3,36.7,96.7,35.1,97.1,33.5z"/>
						<path d="M98.4,27.6l8.5,4.9c0,0.3,0,0.7,0,1c-0.1,1.4-0.1,2.8-0.2,4.3l-9.3-5.4C97.8,30.9,98.2,29.2,98.4,27.6z"/>
					</g>
				</g>
				<g>
					<path class="st14" d="M77.3,92.7c0.1-1.4,0.2-2.8-0.5-3.7c2.8-7.5,6.6-9.8,5.4-17.4c2.6,0.5,20.1-0.4,23-9c1-3-4.4-4.9-8-4.3
						c-5.9,2.2-13.5,4.1-19.1,9.6c-3.5,4.2-1.9,13.2-4.9,20.6c-1,2.9-2.4,5-4.5,6.6l1.3,2.6c0,0,4.1-0.8,4.2-1
						C74.2,96.4,77.3,92.7,77.3,92.7z"/>
					<path class="st15" d="M76.8,89c1.5,0.9,1.4,2.8,1.1,4.3c-0.7,1.1-1.7,1.8-2.8,3.5L74,97.9c-2.1,1.4-5.9,1.6-7.2,0.8
						c-0.9-1.2,0.2-2.4,2.8-4.5c-1,1.6,0.1,2.4,2.7,2.2c1.2-0.2,2-1.5,3.4-3.2C76.9,91.3,77.7,90.3,76.8,89z"/>
					<path class="st0" d="M87.7,54.2l-8.9,8.3c-2.2,2-3,5.1-2.1,7.9c2.3,7.4,5.9,12.8,6.4,17.2c0,2.2-0.6,4.8-1.4,7.6l1.3,1l2.7-1.6
						l2.2-3.9l-0.7-3.1c-0.6-0.7-1.1-1.4-1.4-2.3C85,77.2,86,70.2,80.9,67.1l7.4-5.7l8.8-3.2L87.7,54.2z"/>
					<path class="st16" d="M87,87.3c1.6,0.3,2.2,1.4,2,2.7c-0.3,1.3-1.3,1.5-1.8,3.5l-0.8,2.4c-0.5,1.1-1.6,1.8-2.8,2.4
						c-1.2,0.6-2,0.2-2,0.2c-1.2-0.3-1-1.6-0.6-3l1.3-2.3L82,94.5c0.4,0.6,1,0.7,2.2,0.2c0,0,0.6,0.1,1.5-2.2
						C86.6,90.3,88,88.7,87,87.3z"/>
					<path class="st16" d="M77,65.3c1.3-0.4,2.7,0.2,3.8,1.4c0.4,0.5,1,0.8,1.6,1.1c1.2,0.5,1.7,1.4,1.9,2.5
						c0.1,0.5,0.2,0.9,0.2,1.4c6.9-0.4,18.1-1.8,20.7-8.2c1.2-3.8,1.1-7-0.6-9.7L90.2,52l-0.4,0c-0.2,0.2-0.4,0.3-0.6,0.5
						c-1.2,1-2.5,2-3.7,3.1C81.1,59.4,77.3,63.6,77,65.3z"/>
					<path class="st17" d="M84.4,70.3c0.1,0.5,0.2,0.9,0.2,1.4c6.9-0.4,18.1-1.8,20.7-8.2c1.2-3.8,1.1-7-0.6-9.7L90.2,52l-1,0.4
						l-2.6,1.1c-0.5,0.7-0.8,1.3-1.1,1.9c-1.8,3.7-0.3,5.7,2.4,7.1C100,62.1,97.4,69.7,84.4,70.3z"/>
					<path class="st18" d="M93.9,29.8c-2.1,0.7-3.8,1.9-4,5.8l-1.5,11.5l-3.2,8.2l2.7,0.4l1.4-2.3c1.7-3.4,3-7.1,4.1-11.1L93.9,29.8
						z"/>
					<path class="st1" d="M90.6,47.5c0,1.9-0.4,3.9-1.3,5.8c0.9,8.6,13.7,8.3,16.6,3.1c-0.4-2.5-2.1-4.3-1-6.7
						c1.6-3.4,2.8-6.2,2.8-6.2c0.4-0.9,0.7-1.7,1-2.4c1-2.7,0.8-4.1-1.3-6c-4.2-3.2-8.3-5.6-13.1-5.3c-1.9-0.1-3,3.3-2.7,6.1
						c0.3,2.5-3.4,5.2-3.7,7C87.4,46.3,90.6,47.5,90.6,47.5z"/>
					<path class="st9" d="M89.3,53.4c0.9,8.6,13.7,8.3,16.6,3.1c-0.4-2.5-2.1-4.3-1-6.7c1.6-3.4,2.8-6.2,2.8-6.2
						c0.4-0.9,0.7-1.7,1-2.4c-0.1-1.3-0.4-2.4-0.7-2.1c-5.7,5.4-6.6,12-11.9,11.3c-3-0.4-3.3-3.7-3.3-3.7c-0.8,0.7-1.6,1-2.3,0.9
						C90.6,49.3,90.2,51.3,89.3,53.4z"/>
					<path class="st0" d="M86.6,54.9c1.5,0.1,2.6,1.5,2.6,1.5l0.7,1.2l0.4,1c0,0.4-0.5,0.3-0.7-0.1l-0.9-1.4l-0.5-0.1L88,57.9
						l-0.1,1.1c0,0.4-0.5,0.4-0.6,0l-0.3-2.2L86.6,57v0.9l-0.2,1.3c0,0.5-0.5,0.5-0.6,0.2L85.8,58v-1.2l-0.2,0.1L85.3,58l-0.1,1
						c-0.1,0.6-0.6,0.5-0.6,0.1l0.1-1.2v-0.9l-0.5,0.3c0,0-0.3,0.6-0.4,0.6c-0.1,0.3-0.4,0.7-0.4,0.7C83.2,59,83,59,83,58.7l0.3-1
						l0.5-0.8c0.3-0.6,0.8-1.2,1.5-1.6C85.2,55.3,86,54.9,86.6,54.9z"/>
					<path class="st0" d="M93.9,61.2L91.1,62c-1.2,0.2-2.1,0.6-3.2,0.5l-2.3,0.6l-1,0.2c-0.4,0.1-0.6-0.3-0.1-0.6l2.4-0.8l-0.1-0.3
						l-1.3,0.2l-1.2,0.3c-0.6,0.1-0.7-0.3-0.1-0.7l1.4-0.6l1.1-0.3l-0.1-0.1l-1.2,0.3l-1.2,0.5c-0.7,0.2-0.9-0.2-0.4-0.6l1.2-0.6
						l1.4-0.5l-0.1-0.2l-1.2,0.2l-1.5,0.6c-0.6,0.1-0.7-0.3-0.1-0.6l1.5-0.7l2.4-0.5l-0.1-0.1l-0.8-0.1l-1,0.2
						c-0.6,0.1-0.9-0.3-0.1-0.6l1.3-0.3c0,0,1.9,0.3,2.3,0.6c0.6,0.4,2.9,1.2,2.9,1.2l0.7-0.2C93.7,58.8,94.9,61,93.9,61.2z"/>
					<path class="st1" d="M109.4,38.3c0.2,4.8-0.6,10.6-1.8,16.1c-0.1,0.3-0.2,0.6-0.5,0.8c-4.1,3-8.5,4.9-14.2,6.3
						c0-1.1-0.3-1.9-1-2.4c3.8-2.5,6.8-4.4,11.6-6.8c0-3.7,0.3-7.4,0.8-11.1C104.8,36.6,109,34.5,109.4,38.3z"/>
					<path class="st18" d="M88.1,55.4l1.2-2.1l0.5-2.8l-1.6-2.1l-3,6.8C86.4,54.9,87.4,54.9,88.1,55.4z"/>
				</g>
				<path class="st10" d="M100.9,72.6c0.5,0,0.8-0.4,0.8-0.8V61.6c0-0.5-0.4-0.8-0.8-0.8c-0.5,0-0.8,0.4-0.8,0.8v10.2
					C100.1,72.3,100.5,72.6,100.9,72.6z"/>
				<g>
					<path d="M95,65l12.5-7.2L95,65z"/>
					<path d="M95,65.7c0.3,0,0.6-0.1,0.9-0.2l12.5-7.2c0.8-0.5,1.1-1.6,0.6-2.4c-0.5-0.8-1.6-1.1-2.4-0.6l-12.5,7.2
						c-0.8,0.5-1.1,1.6-0.6,2.4C93.8,65.4,94.4,65.7,95,65.7z"/>
				</g>
			</g>
			<path class="st8" d="M103,31.3l1.4,1.6c-1.5,2.2-3,3.9-5.7,4.6l-1.2-3.1l-2.5,0.8c-0.4-1.7,0.3-3.4,1.6-5l3.2-0.4L103,31.3z"/>
			<g>
				<path class="st0" d="M103.2,25.9l-0.2,5.7l-0.3,0.6c-1.2,1.8-3.7,2.7-5.3,2.2c-0.9-1.1-1.1-2.4-0.7-3.9l0.9-2L103.2,25.9z"/>
				<path class="st11" d="M103.5,27.7c0,0.1-2.4,6-5.7,5.8c-2-0.1-1.4-4.5-1.4-4.5L103.5,27.7z"/>
				<path class="st0" d="M96.8,32.1c1.5,0.7,3.7-0.9,4.8-1.7c0.4-0.3,0.6-0.6,0.8-1l0.9-1.9l1.3,0.1c0,0,2.3-1.2,2.2-5.4
					c0-2.1-2.6-4.2-4.9-4.3c-3.6,0-5.1,2.1-6.1,3.6C94.7,23,95,25.9,95,25.9S94.8,31.2,96.8,32.1z"/>
				<path class="st19" d="M101.6,30.2c0,0-4.5-2.5-5.1-7.8c0,0-2.1,0.1-1.5,3.5c0,0-1.3-0.2-1.7-2.3c-0.4-1.9,0.4-4.7,5.3-6
					c4.9-1.4,9.4,0.9,8.9,5.9c-0.6,5.6-2.3,9-4.9,9.8C102.5,33.3,102.7,31.1,101.6,30.2z"/>
			</g>
			<path class="st16" d="M97.4,34.4l0.4,1l-0.9,1.1c-1,1.7-1,6.2-2.4,8.4L92.8,46L92,43.9c1.8-2,2.9-6.1,4.2-7.7l0.3-1.5L97.4,34.4z
				"/>
		</g>
	</g>
</g>
</svg>
