<?xml version="1.0" encoding="utf-8"?>
<!-- Generator: Adobe Illustrator 24.0.0, SVG Export Plug-In . SVG Version: 6.00 Build 0)  -->
<svg version="1.1" id="Layer_1" xmlns="http://www.w3.org/2000/svg" xmlns:xlink="http://www.w3.org/1999/xlink" x="0px" y="0px"
	 viewBox="0 0 231.2 232.4" style="enable-background:new 0 0 231.2 232.4;" xml:space="preserve">
<style type="text/css">
	.st0{fill:#FFB294;}
	.st1{fill:#FF9238;}
	.st2{fill:#FFC366;}
	.st3{fill:#3B5770;}
	.st4{fill:#2A3D4F;}
	.st5{opacity:0.3;fill:#2A3D4F;}
	.st6{fill:#FFFFFF;}
	.st7{fill:#1E3A47;}
</style>
<title>4</title>
<g>
	<path class="st0" d="M125,55.3c0.1,0,3,0.5,3,0.5l2.4,2.3l0.8,0.8c1.6,1.6,3.5,2.7,5.6,3.4l4.9,2.9l2.3-5.7l-5.3-2l-4.3-4.8
		l-3.2-2.4l-2.8-1.6l-5.5-0.5c-1,0-1,1.1-0.2,1.1l-0.7,0.3c-0.8,0.3-0.3,1.4,0.3,1.3h0.8c-0.6,0.4-0.5,1.2,0.4,1.3l2,0.1L128,53
		l1,0.8l-3.7-0.4C123.5,53.2,123.3,54.9,125,55.3z"/>
	<g>
		<path class="st1" d="M33.3,10.3l87.8,152l10.2-5.9c11.5-6.4,18.7-20.4,18.7-40.5c0-39.6-27.8-87.7-62.1-107.5
			C70.4-1.6,54.7-2.4,43.5,4.4C43.5,4.4,33.3,10.3,33.3,10.3z"/>
		<ellipse transform="matrix(0.866 -0.5 0.5 0.866 -32.8141 50.1378)" class="st2" cx="77.2" cy="86.3" rx="50.7" ry="87.8"/>
		<path class="st1" d="M37.3,17.3c0.6-0.3,1.1-0.6,1.7-0.9c9.3-4.4,21.6-2.8,35,4.7c15.7,8.7,30.3,24,41.4,43.2
			c11,19.1,17,39.5,16.7,57.4c-0.2,15.3-5,26.9-13.4,32.7c-0.5,0.4-1.1,0.7-1.6,1c-9.4,5.5-22.5,4.1-36.7-3.8
			c-15.7-8.7-30.3-24-41.4-43.1c-11-19.1-17-39.5-16.7-57.4C22.5,34.7,27.8,22.7,37.3,17.3z"/>
		<path class="st2" d="M39,16.4c9.3-4.4,21.6-2.8,35,4.7c15.7,8.7,30.3,24,41.4,43.2c11,19.1,17,39.5,16.7,57.4
			c-0.2,15.3-5,26.9-13.4,32.7c-9.3,4.4-21.6,2.7-35.1-4.7c-15.6-8.7-30.3-24-41.4-43.1C31.2,87.4,25.3,67,25.5,49.1
			C25.8,33.7,30.5,22.2,39,16.4z"/>
		<g>
			<path class="st1" d="M80,42.5c3.3,2.1,6.4,4.4,9,7c2.7,2.6,5,5.2,6.9,7.8c1.9,2.6,3.4,5.1,4.4,7.4c1,2.3,1.5,4.2,1.5,5.7
				c0,0.7-0.2,1.4-0.4,2.1c-0.3,0.7-0.6,1.2-1.1,1.6c-0.5,0.4-1,0.6-1.7,0.7c-0.6,0.1-1.2-0.1-1.9-0.5c-0.9-0.5-1.7-1.5-2.6-2.9
				c-0.9-1.4-1.9-3.1-3.2-5c-1.2-1.9-2.8-3.9-4.6-6.1c-1.8-2.1-4-4.1-6.7-6.1l-0.8,28.5c2.4,2.5,4.8,5,7.2,7.6
				c2.4,2.6,4.5,5.4,6.4,8.4c1.9,3,3.4,6.1,4.5,9.4c1.1,3.3,1.6,6.9,1.5,10.8c-0.1,3.8-0.8,6.7-2,8.7c-1.3,2-2.8,3.3-4.8,4
				c-1.9,0.7-4.1,0.7-6.6,0.2c-2.4-0.6-5-1.5-7.5-2.7l-0.1,3.5c0,0.7-0.3,1.2-0.9,1.4c-0.6,0.2-1.3,0-2.3-0.5
				c-0.8-0.5-1.5-1.2-2.2-2.2c-0.7-1-1-1.8-1-2.6l0.1-3.3c-1.8-1.1-3.7-2.5-5.8-4.1c-2.1-1.6-3.9-3.3-5.7-5.1
				c-1.7-1.8-3.1-3.5-4.2-5.3c-1.1-1.8-1.6-3.4-1.6-4.9c0-0.6,0.1-1.2,0.3-1.9c0.2-0.7,0.5-1.3,0.9-1.8c0.4-0.5,0.9-0.8,1.5-0.9
				c0.6-0.1,1.3,0.1,2.1,0.6c0.6,0.4,1.3,1,2,1.9c0.7,0.8,1.5,1.8,2.5,2.9c0.9,1.1,2.1,2.3,3.4,3.7c1.3,1.3,2.9,2.6,4.8,3.9
				l0.7-24.6c-2.3-2.4-4.6-5-6.9-7.6c-2.3-2.7-4.3-5.6-6.1-8.6c-1.8-3.1-3.2-6.4-4.3-9.9c-1.1-3.5-1.5-7.4-1.4-11.5
				c0.2-7.4,2.2-12.1,5.9-14.1c3.7-2,8.5-1.6,14.3,1.1l0.1-4.1c0-0.7,0.4-1.2,1.1-1.3c0.7-0.1,1.4,0,2.2,0.5
				c0.9,0.6,1.7,1.3,2.2,2.2c0.6,0.9,0.8,1.8,0.8,2.5L80,42.5z M87.7,113.6c0-1.7-0.2-3.3-0.7-4.9c-0.5-1.6-1.2-3.1-2.1-4.6
				c-0.9-1.5-2-2.9-3.2-4.4c-1.2-1.5-2.5-2.9-4-4.3l-0.6,22.1c3,1.4,5.5,1.9,7.5,1.5C86.6,118.6,87.6,116.8,87.7,113.6z M64.2,57.2
				c-0.1,3.8,0.7,7.3,2.5,10.4c1.8,3.1,3.9,6.1,6.5,9L74,51c-2.9-1.1-5.3-1.3-7-0.4C65.2,51.5,64.3,53.7,64.2,57.2z"/>
		</g>
	</g>
	<path class="st3" d="M139.5,67.8c-2.5-3.5,1.4-10.2,4.5-9.4c8,2.9,15.4,5.9,20.8,9.1c6.7,3.6,15.6,8.4,20.2,14.4
		c2.1,7.7-0.9,12.9-5.8,14.2L161,78L139.5,67.8z"/>
	<path class="st0" d="M121.8,72.1l-1.3-4.3l-3.6-4l-2.7-4.5l-2-4l-0.2-1.5c-0.2-1.6,0.9-1.9,1.3-0.5l0.3,1.4l2,3l-1.5-4l-0.6-2.2
		c-0.5-1.8,0.6-2.5,1.2-1l0.9,2.8l1.6,2.6l-1.6-3.8l-1.1-3.5c-0.4-1.4,0.7-2.1,1.4-0.8l1.4,3.5l2,3.7l-1.4-4.6l-0.5-2.7
		c-0.3-1.6,0.8-2.1,1.5-0.4l1,3l1.9,4.1l2.2,3.5l-0.5-3L122,53c-0.9-1.2-0.1-2.2,0.9-1.4l2.1,2.1l1.7,4v6.6l1.9,5.3L121.8,72.1z"/>
	<path class="st4" d="M168.5,127c-7.1,6-14.5,11.6-15.3,22.5c0.8,8,18.9,18.7,32.2,27.8c3.5,2.2,10.9-5.4,8.1-9.8
		c-5.9-6.5-12.3-12.2-19.1-17.5l6.4-11L168.5,127z"/>
	<path d="M185.6,182.3l-0.7-5.3l2.5-5.6c1-2.1,3.3-3.3,5.6-2.8l1.1,0.3c1.5,0.6,2.9,2,4.4,3.8c0.5,0.6,0.6,1.3,0.3,2l-0.7,1.9
		l1.1,2.9c-1.7,3.7-4.4,6.3-8,8.1L185.6,182.3z"/>
	<path d="M197.4,212.5l3.5,5.6l-1.5,2.8c-0.9,1.7-2.6,2.8-4.5,3.1c-1.9,0.3-3.4,1.2-4.4,2.7c-1.1,2.4,1.4,5.3,7,5.7
		c3.1-0.4,6.9-2.4,9.1-4.8l1.5,0.7c3.5-1.9,6.1-3.5,7.2-5.8c-2.1-5.3-4-7.9-7-9.3l-4.9-4.9L197.4,212.5z"/>
	<path class="st4" d="M199.7,220c-4.8-6.6-9.9-11.8-14.7-16.7c-5-5-9.8-9.6-14-14.9c-5.1-13-8-26.2-9.3-39.6c-0.1-1-0.2-2-0.3-3.1
		l19.4-2.1c0,0.6,0.1,1.1,0.1,1.7c0.3,4.5,0.9,8.9,1.5,13.2c1.1,7.5,2.5,14.8,3.5,22.2c7.9,7.3,16.2,19.7,24.6,33.7
		C211.6,217.4,201.3,223.3,199.7,220z"/>
	<path class="st5" d="M184.9,203.3c-5-5-9.8-9.6-14-14.9c-5.1-13-8-26.2-9.3-39.6l19-4l0.3,0.5c0.3,4.5,0.9,8.9,1.5,13.2
		c-1.7,1.1-3.6,1.9-5.4,2.3c-5.2,1.2-8.3,6.5-7,11.7c1.1,4.3,2.3,8.5,3.7,12.4L184.9,203.3z"/>
	<path class="st3" d="M192.4,134c0,7.6-4,13.7-7.6,16.4c-4.2,3.1-11.3,3.9-17.4,3.4c-2.9-0.3-5.6-0.8-7.7-1.6
		c-3.6-3.3-1.4-13.1-1.4-21c0-6.5-3.9-11.2-7-21.2c-1.2-3.9-2.3-8.5-3-14.3l7-3.9l22.5-10.6c2.2,0,3.1-0.1,7.1,0.7
		c6.8,11.1,4,26.9,5.2,38.4C190.8,126.4,192.4,134,192.4,134z"/>
	<path class="st5" d="M167.4,153.8c-2.9-0.3-5.6-0.8-7.7-1.6c-3.6-3.3-1-13.1-1.4-21c-0.3-5.3-6.4-16.6-9-28.8
		c1.5-1.5,8.1,1.6,7.6,2.1c-0.6,0.7,5.5,16.4,4.4,25.4C160,140.9,166.6,152.4,167.4,153.8z"/>
	<g>
		<path class="st0" d="M156.6,59.7c-5.5,0.5-6.9,2.7-6.5,7.6c-1.3,2.7,2.2,8.9,4,12.6c0.5,1.1,1.4,2.7,3.8,2.4
			c0.8,0.1,1.2,0.9,1.4,1.7c0.5,1.5,0.3,3.2,0.3,3.2c6.5-0.5,11.9-2,13.9-6.6l-2.9-2.4l-4.8-18.6H156.6z"/>
		<path d="M149.9,69.4c0.9,0.1,2.1-0.6,3.6,2.3c0.6,1.1,1.2,2.4,1.2,2.4l3.1,0.6l1.8,4c0.6,1.3,2.6,3.3,3.9,3.4c2.3,0,6-1.6,7.3-3.2
			c0,0,1.1-8.2,0-12c-1.1-3.8-2-6.8-5.6-8.5c-3.6-1.7-9.8-0.5-12.6,1.5C146.6,64,148.2,68.3,149.9,69.4z"/>
		<path class="st0" d="M155.8,75.3c-0.2-0.5-0.4-1.1-0.4-1.7c0-0.5,0.1-1.1,0.5-1.4c0.4-0.3,0.9-0.2,1.3,0c0.4,0.3,0.7,0.7,0.9,1.1
			c0.6,1.2,0.8,2.5,0.5,3.8c-0.1,0.4-0.3,0.8-0.7,0.8c-0.4,0.1-0.7-0.3-0.9-0.6c-0.6-0.8-1.1-1.7-1.6-2.6L155.8,75.3z"/>
	</g>
	<path class="st6" d="M156.2,90.5l3.1-4.3c6.6-0.4,13.1-3.4,14.4-6l3.5,1.6l-7.3,6.4L156.2,90.5z"/>
	<path class="st7" d="M151.4,91.4c0,0,9.3,5.2,22.9-3c4.5-2.7,4.9-5.5,4.9-5.5c0.3-1.3-2-2.4-4.1-2.1c-1.4,5.1-12.7,7.1-17.6,7.8
		L151.4,91.4z"/>
	<path class="st3" d="M119.4,70.5c3,9.2,4.5,15.5,7.9,20.2c2.9,4.4,14.8,11.1,22.8,15.2c3.9,2,7.2,0.5,9.1-3.6l1.2-1.9
		c1.8-6.6-3.6-9.3-7.9-10.8c-5.5-2-11.1-5-16.7-8.7l-7.6-14.7C125.9,63.7,119.4,66.6,119.4,70.5z"/>
</g>
</svg>
