<?xml version="1.0" encoding="utf-8"?>
<!-- Generator: Adobe Illustrator 24.0.0, SVG Export Plug-In . SVG Version: 6.00 Build 0)  -->
<svg version="1.1" id="Layer_1" xmlns="http://www.w3.org/2000/svg" xmlns:xlink="http://www.w3.org/1999/xlink" x="0px" y="0px"
	 viewBox="0 0 106.6 114.3" style="enable-background:new 0 0 106.6 114.3;" xml:space="preserve">
<style type="text/css">
	.st0{fill:#110239;}
	.st1{fill:#FD425F;}
	.st2{fill:#616161;}
	.st3{fill:#00BAD1;}
	.st4{opacity:0.32;fill:#00547A;}
	.st5{fill:#E45940;}
	.st6{fill:#F88667;}
	.st7{fill:#D0D1DE;}
	.st8{fill:#B8B9CD;}
	.st9{fill:#FFFFFF;}
	.st10{fill:#01C7E2;}
	.st11{fill:#E5E6ED;}
</style>
<title>5</title>
<g>
	<g>
		<polygon class="st0" points="62.9,105.9 44.3,105.9 45.8,83.4 61.4,83.4 		"/>
		<path class="st0" d="M65.4,102.3c-0.2-0.3-0.6-0.5-1-0.5H54h-0.9H42.8c-0.4,0-0.8,0.2-1,0.5l-2.8,4.2c-0.5,0.8,0,1.9,1,1.9h13.1
			H54h13.1c1,0,1.6-1.1,1-1.9L65.4,102.3z"/>
		<path class="st0" d="M99.3,89.4H7.9c-2.9,0-5.2-2.4-5.2-5.2V26.3c0-2.9,2.3-5.2,5.2-5.2h91.3c2.9,0,5.2,2.4,5.2,5.2v57.8
			C104.5,87,102.2,89.4,99.3,89.4z"/>
		<rect x="7.4" y="25.6" class="st1" width="92.5" height="58.5"/>
	</g>
	<g>
		<path class="st2" d="M87.8,101.5c-10.7-2-23.3-4.4-23.3-0.2c0,3.9,4.7,7,8.8,8.9c2.2-0.9,4.7-1,7.1-1.4c4.2-0.7,8.3,0,12.5,0
			c4.4-1.8,6.7-5,6.7-5S96,103,87.8,101.5z"/>
		<path class="st3" d="M78.7,108.9c0.3,0.2-3.8,2.1-3.4,2.3c1.8,0.6,19.1,0.7,20.7,0.2c2.7-0.7-5.1-4.1-2.4-4.7
			c4.5-3.2,7-7.3,4.6-7.9c-2.7-0.6-7,0.9-9.8,1.2c-2.1,0.2-3.3,0.4-5.3-0.3L76.2,99c-6.9,1.4-8.4,3.9-8.4,3.8c0,1,5.1,3,9.6,5.4
			C77.8,108.4,78.3,108.6,78.7,108.9z"/>
		<path class="st4" d="M78.7,108.9c0.3,0.2-3.8,2.1-3.4,2.3c1.8,0.6,19.1,0.7,20.7,0.2c2.7-0.7-5.1-4.1-2.4-4.7
			c4.5-3.2,7-7.3,4.6-7.9c-2.7-0.6-7,0.9-9.8,1.2c-2.1,0.2-3.3,0.4-5.3-0.3L76.2,99c-6.9,1.4-8.4,3.9-8.4,3.8c0,1,5.1,3,9.6,5.4
			C77.8,108.4,78.3,108.6,78.7,108.9z"/>
		<path d="M76.1,106.3l2.2,3c0,0-2.4,1.7-3.1,2c-0.7,0.3-6.1,0.5-7.5-0.6c-1.3-1-1.7-2.2-1.1-2.8c0.8-0.8,2.8-1,3.8-1.1
			C72.8,106.4,76.1,106.3,76.1,106.3z"/>
		<path class="st3" d="M74.8,106.4l1.3,4.5c0,0,21.3-0.3,23.5-3.6c2.9-2.9,4-8.7-1.7-8.9c-0.9,0-2.3,0.3-3.7,0.7
			C86.3,101.8,74.8,106.4,74.8,106.4z"/>
		<path class="st4" d="M98.3,106.1c-1.3,0-2.4-0.7-3.5-1.3c-1.4-0.8-2.9-1.4-4.4-1.7c-1.3-0.3-2.8-0.8-3.8-1.2
			c-6.2,2-11.8,4.5-11.8,4.5l1,3.5c0.5,0.1,1.1,0.3,1.6,0.4c0.6,0.1,1.3,0.1,1.9,0.3c0.1,0,0.3,0.1,0.4,0.1
			c6.1-0.3,18.4-1.3,20.1-3.7c0.3-0.4,0.8-1,1-1.5C100.3,105.7,98.9,106.1,98.3,106.1z"/>
		<path d="M93.1,106.6l-1.8,2.3c0,0,3,1.8,3.6,2.1c0.6,0.3,5,0.5,6.4-0.5c1.2-0.9,1.7-2.1,1.1-2.7c-0.8-0.8-2.7-1-3.6-1.2
			C96.7,106.3,93.1,106.6,93.1,106.6z"/>
		<path class="st3" d="M95.3,106l-1.9,5.2c0,0-26.1-2.1-28.3-5.7c-1.3-2.2-1.5-5.6,1.3-6.8c1.7-0.7,4.1-1.1,7.5,0
			C82.3,101.7,95.3,106,95.3,106z"/>
		<path class="st5" d="M85,71.2h-1.9h-1.9c0,0-0.5,5-1.5,5.6c0,0-1.2,6,3.3,6c5.5,0,3.3-6,3.3-6C85.5,76.3,85,71.2,85,71.2z"/>
		<g>
			<path class="st6" d="M87.9,72.2c-0.5-0.6-1.1,0.3-1.1,0.3s0.8-3.3,0-4.8C86,66.3,83.2,67,83.2,67s-2.7-0.8-3.6,0.7
				c-0.8,1.5,0,4.8,0,4.8s-0.6-0.9-1.1-0.3c-0.5,0.6,0.8,2.1,1.2,2.3c0,0,2,3.7,3.6,3.7c1.6,0,3.6-3.7,3.6-3.7
				C87.1,74.3,88.5,72.8,87.9,72.2z"/>
			<path class="st0" d="M82.5,68.3c0,0-2.1,0.4-2.3,1.5c-0.1,0.5,0,1.1,0.1,1.7c0.1,0.3,0.3,1.8,0.2,1.8c-0.1,0-0.2,0-0.3,0
				c-0.3-0.2-0.5-0.6-0.7-0.8c-0.4-0.6-1-0.5-1.1-0.1c0,0-0.5-5.5,1.8-5.7C82.5,66.5,82.5,68.3,82.5,68.3z"/>
			<path class="st0" d="M83.9,68.3c0,0,2.1,0.4,2.3,1.5c0.1,0.5,0,1.1-0.1,1.7c-0.1,0.3-0.3,1.8-0.2,1.8c0.1,0,0.2,0,0.3,0
				c0.3-0.2,0.5-0.6,0.7-0.8c0.4-0.6,1-0.5,1.1-0.1c0,0,0.5-5.5-1.8-5.7C83.9,66.5,83.9,68.3,83.9,68.3z"/>
			<path class="st0" d="M86.9,67c0,0,0-0.9-1-1.5c-1-0.6-3.1-0.8-4.7,0c-1.6,0.8-2.1,1-2.6,0.7c-0.5-0.3-0.2-0.5-0.2-0.5
				s-1.1,0-1,1.6c0.1,1.6,2.1,3.7,4.7,3.7C86.3,71,87.6,68.2,86.9,67z"/>
		</g>
		<path class="st7" d="M86.5,76.9c-0.2,5.1-3.3,4.5-3.3,4.5s-3.2,0.5-3.3-4.5c0,0-5,1.4-7.5,3c0,0,1,4.4,1.1,9.3l2.9,11.2l6.8-1.2
			l6.8,1.2l2.9-11.2c0.1-4.9,1.1-9.3,1.1-9.3C91.5,78.3,86.5,76.9,86.5,76.9z"/>
		<path class="st8" d="M92.4,82.8c-3.1,1.7-4.7,5.5-7.7,7.4c-3.1,1.9-5.4-2-6.9-4c-1.3-1.8-3-3.2-5-4c0.3,1.8,0.6,4.3,0.7,7.1
			l2.9,11.2l6.8-0.8l6.8,0.8l2.9-11.2c0-2.7,0.4-5.2,0.7-6.9C93.1,82.5,92.7,82.6,92.4,82.8z"/>
		<path class="st7" d="M72.3,79.9c0,0-5.7,13.4-5.8,15.3c-0.1,3.6,7.7,5,11.3,4.4l1.5-0.3C79.2,99.3,73.9,79.8,72.3,79.9z"/>
		<path class="st7" d="M94,79.9c0,0,5.8,13.4,5.8,15.3c0,3.6-7.7,5-11.3,4.4L87,99.3C87,99.3,92.3,79.8,94,79.9z"/>
		<path class="st8" d="M74.7,84.6c0,0.6-0.1,1.3-0.2,2c-0.6,2.4-1.4,5-0.5,7.4c0.7,1.9,1.8,3.8,2.8,5.6c0.4,0,0.7,0,1-0.1l1.5-0.3
			C79.2,99.3,76.8,90.3,74.7,84.6z"/>
		<path class="st8" d="M90.6,99.5c0.5-1.1,0.7-2.3,0.7-3.6c-0.1-2.5-0.1-5-0.1-7.5c0-1.1,0-2.1,0.1-3.1c-2,5.7-4.3,14-4.3,14
			l1.5,0.3C89.1,99.6,89.8,99.6,90.6,99.5z"/>
		<g>
			<rect x="74.2" y="99.4" class="st0" width="18" height="1.1"/>
			<path class="st0" d="M94.7,87H71.5c0,0-1.3,0-1,1.4c0.2,1.4,3.1,11.2,3.7,11.2c1.1,0,8.9,0,8.9,0s7.8,0,8.9,0
				c0.5,0,3.5-9.8,3.7-11.2C96,87,94.7,87,94.7,87z"/>
			<path class="st9" d="M84.1,93.7c0,0.5-0.4,1-1,1c-0.5,0-1-0.4-1-1c0-0.5,0.4-1,1-1C83.7,92.8,84.1,93.2,84.1,93.7z"/>
		</g>
	</g>
	<g>
		<g>
			<path class="st0" d="M22.5,54.9c0,0,29.1,36.7,62.2,0C51.6,18.2,22.5,54.9,22.5,54.9z"/>
			<path class="st9" d="M26.9,54.9c0,0,25,31.6,53.5,0C51.9,23.3,26.9,54.9,26.9,54.9z"/>
		</g>
		
			<ellipse transform="matrix(0.2257 -0.9742 0.9742 0.2257 -11.9485 94.7121)" class="st10" cx="53.6" cy="54.9" rx="13.8" ry="13.8"/>
		<path class="st0" d="M62.3,54.9c0,4.8-3.9,8.7-8.7,8.7c-4.8,0-8.7-3.9-8.7-8.7c0-4.8,3.9-8.7,8.7-8.7
			C58.4,46.2,62.3,50.1,62.3,54.9z"/>
		<path class="st9" d="M63.9,49.4c0,2-1.6,3.5-3.5,3.5c-2,0-3.5-1.6-3.5-3.5c0-2,1.6-3.5,3.5-3.5C62.3,45.8,63.9,47.4,63.9,49.4z"/>
	</g>
	<g>
		<g>
			<path class="st11" d="M50.4,32.9H13c-1,0-1.9-0.8-1.9-1.9V6.9C11.1,5.8,12,5,13,5h37.4c1,0,1.9,0.8,1.9,1.9V31
				C52.3,32,51.5,32.9,50.4,32.9z"/>
			<rect x="13" y="7.2" class="st0" width="37.4" height="23.4"/>
		</g>
		<polygon class="st1" points="26.7,13.5 26.7,25 37.9,19.2 		"/>
	</g>
</g>
</svg>
